<svg width="24" height="20" viewBox="0 0 24 18" fill="none" xmlns="http://www.w3.org/2000/svg">
<g clip-path="url(#clip0)">
<path d="M4.62141 17.9602V16.7655C4.62141 16.3075 4.34265 16.0088 3.86477 16.0088C3.62584 16.0088 3.36699 16.0885 3.18778 16.3473C3.0484 16.1283 2.84929 16.0088 2.55061 16.0088C2.3515 16.0088 2.15239 16.0686 1.99309 16.2876V16.0487H1.57495V17.9602H1.99309V16.9049C1.99309 16.5664 2.1723 16.4071 2.45106 16.4071C2.72982 16.4071 2.8692 16.5863 2.8692 16.9049V17.9602H3.28734V16.9049C3.28734 16.5664 3.48645 16.4071 3.7453 16.4071C4.02406 16.4071 4.16345 16.5863 4.16345 16.9049V17.9602H4.62141ZM10.8139 16.0487H10.1369V15.4712H9.71875V16.0487H9.34044V16.427H9.71875V17.3031C9.71875 17.7411 9.89796 18 10.3758 18C10.555 18 10.7542 17.9403 10.8935 17.8606L10.7741 17.5022C10.6546 17.5818 10.5152 17.6018 10.4157 17.6018C10.2165 17.6018 10.1369 17.4823 10.1369 17.2832V16.427H10.8139V16.0487ZM14.3581 16.0088C14.1192 16.0088 13.9599 16.1283 13.8603 16.2876V16.0487H13.4422V17.9602H13.8603V16.8849C13.8603 16.5664 13.9997 16.3872 14.2586 16.3872C14.3382 16.3872 14.4378 16.4071 14.5174 16.427L14.6369 16.0287C14.5573 16.0088 14.4378 16.0088 14.3581 16.0088ZM9.00194 16.208C8.80282 16.0686 8.52406 16.0088 8.22539 16.0088C7.74752 16.0088 7.42893 16.2478 7.42893 16.6261C7.42893 16.9447 7.66787 17.1239 8.08601 17.1836L8.28512 17.2035C8.50415 17.2433 8.62362 17.3031 8.62362 17.4026C8.62362 17.542 8.46433 17.6416 8.18557 17.6416C7.90681 17.6416 7.68778 17.542 7.5484 17.4425L7.34929 17.761C7.56831 17.9203 7.86699 18 8.16566 18C8.72318 18 9.04176 17.7411 9.04176 17.3827C9.04176 17.0442 8.78291 16.865 8.38468 16.8053L8.18557 16.7854C8.00636 16.7655 7.86699 16.7256 7.86699 16.6062C7.86699 16.4668 8.00637 16.3872 8.22539 16.3872C8.46433 16.3872 8.70327 16.4867 8.82274 16.5464L9.00194 16.208ZM20.1126 16.0088C19.8736 16.0088 19.7143 16.1283 19.6148 16.2876V16.0487H19.1966V17.9602H19.6148V16.8849C19.6148 16.5664 19.7542 16.3872 20.013 16.3872C20.0926 16.3872 20.1922 16.4071 20.2719 16.427L20.3913 16.0287C20.3117 16.0088 20.1922 16.0088 20.1126 16.0088ZM14.7763 17.0044C14.7763 17.5818 15.1745 18 15.7918 18C16.0705 18 16.2696 17.9403 16.4688 17.781L16.2696 17.4425C16.1103 17.5619 15.9511 17.6217 15.7718 17.6217C15.4334 17.6217 15.1944 17.3827 15.1944 17.0044C15.1944 16.646 15.4334 16.4071 15.7718 16.3872C15.9511 16.3872 16.1103 16.4469 16.2696 16.5664L16.4688 16.2279C16.2696 16.0686 16.0705 16.0088 15.7918 16.0088C15.1745 16.0088 14.7763 16.427 14.7763 17.0044ZM18.6391 17.0044V16.0487H18.221V16.2876C18.0816 16.1084 17.8825 16.0088 17.6236 16.0088C17.086 16.0088 16.6679 16.427 16.6679 17.0044C16.6679 17.5818 17.086 18 17.6236 18C17.9024 18 18.1015 17.9004 18.221 17.7212V17.9602H18.6391V17.0044ZM17.1059 17.0044C17.1059 16.6659 17.3249 16.3872 17.6834 16.3872C18.0219 16.3872 18.2608 16.646 18.2608 17.0044C18.2608 17.3429 18.0219 17.6217 17.6834 17.6217C17.3249 17.6018 17.1059 17.3429 17.1059 17.0044ZM12.1081 16.0088C11.5506 16.0088 11.1524 16.4071 11.1524 17.0044C11.1524 17.6018 11.5506 18 12.128 18C12.4068 18 12.6856 17.9203 12.9046 17.7411L12.7055 17.4425C12.5462 17.5619 12.3471 17.6416 12.148 17.6416C11.8891 17.6416 11.6303 17.5221 11.5705 17.1836H12.9842C12.9842 17.1239 12.9842 17.0841 12.9842 17.0243C13.0042 16.4071 12.6457 16.0088 12.1081 16.0088ZM12.1081 16.3672C12.367 16.3672 12.5462 16.5265 12.586 16.8252H11.5904C11.6303 16.5664 11.8095 16.3672 12.1081 16.3672ZM22.482 17.0044V15.292H22.0639V16.2876C21.9245 16.1084 21.7254 16.0088 21.4665 16.0088C20.9289 16.0088 20.5108 16.427 20.5108 17.0044C20.5108 17.5818 20.9289 18 21.4665 18C21.7453 18 21.9444 17.9004 22.0639 17.7212V17.9602H22.482V17.0044ZM20.9488 17.0044C20.9488 16.6659 21.1679 16.3872 21.5263 16.3872C21.8648 16.3872 22.1037 16.646 22.1037 17.0044C22.1037 17.3429 21.8648 17.6217 21.5263 17.6217C21.1679 17.6018 20.9488 17.3429 20.9488 17.0044ZM6.97097 17.0044V16.0487H6.55283V16.2876C6.41345 16.1084 6.21433 16.0088 5.95548 16.0088C5.41787 16.0088 4.99973 16.427 4.99973 17.0044C4.99973 17.5818 5.41787 18 5.95548 18C6.23424 18 6.43336 17.9004 6.55283 17.7212V17.9602H6.97097V17.0044ZM5.41787 17.0044C5.41787 16.6659 5.63689 16.3872 5.9953 16.3872C6.3338 16.3872 6.57274 16.646 6.57274 17.0044C6.57274 17.3429 6.3338 17.6217 5.9953 17.6217C5.63689 17.6018 5.41787 17.3429 5.41787 17.0044Z" fill="black"/>
<path d="M15.1346 1.53319H8.86255V12.8031H15.1346V1.53319Z" fill="#FF5F00"/>
<path d="M9.26077 7.16814C9.26077 4.87832 10.336 2.84735 11.9886 1.53319C10.774 0.577436 9.24086 0 7.56829 0C3.6059 0 0.400146 3.20575 0.400146 7.16814C0.400146 11.1305 3.6059 14.3363 7.56829 14.3363C9.24086 14.3363 10.774 13.7589 11.9886 12.8031C10.336 11.5089 9.26077 9.45796 9.26077 7.16814Z" fill="#EB001B"/>
<path d="M23.597 7.16814C23.597 11.1305 20.3913 14.3363 16.4289 14.3363C14.7563 14.3363 13.2231 13.7589 12.0085 12.8031C13.6811 11.4889 14.7364 9.45796 14.7364 7.16814C14.7364 4.87832 13.6612 2.84735 12.0085 1.53319C13.2231 0.577436 14.7563 0 16.4289 0C20.3913 0 23.597 3.22566 23.597 7.16814Z" fill="#F79E1B"/>
</g>
<defs>
<clipPath id="clip0">
<rect width="23.1969" height="18" fill="white" transform="translate(0.400146)"/>
</clipPath>
</defs>
</svg>
