<svg width="48" height="20" viewBox="0 0 49 20" fill="none" xmlns="http://www.w3.org/2000/svg">
<path fill-rule="evenodd" clip-rule="evenodd" d="M48.4001 10.3338C48.4001 6.91589 46.7446 4.21896 43.5804 4.21896C40.4028 4.21896 38.4802 6.91589 38.4802 10.3071C38.4802 14.3258 40.7499 16.3551 44.0076 16.3551C45.5964 16.3551 46.798 15.9947 47.7059 15.4873V12.8171C46.798 13.271 45.7566 13.5514 44.4348 13.5514C43.1398 13.5514 41.9916 13.0975 41.8447 11.522H48.3734C48.3734 11.3485 48.4001 10.6542 48.4001 10.3338ZM41.8047 9.06542C41.8047 7.55674 42.7259 6.92924 43.567 6.92924C44.3814 6.92924 45.2492 7.55674 45.2492 9.06542H41.8047Z" fill="#635BFF"/>
<path fill-rule="evenodd" clip-rule="evenodd" d="M33.3268 4.21896C32.0183 4.21896 31.1772 4.83311 30.7099 5.26035L30.5364 4.43258H27.5991V20L30.9369 19.2924L30.9503 15.514C31.4309 15.8611 32.1385 16.3551 33.3134 16.3551C35.7033 16.3551 37.8795 14.4326 37.8795 10.2003C37.8661 6.32844 35.6632 4.21896 33.3268 4.21896ZM32.5257 13.4179C31.738 13.4179 31.2707 13.1375 30.9503 12.7904L30.9369 7.83712C31.284 7.44993 31.7647 7.18291 32.5257 7.18291C33.7406 7.18291 34.5818 8.54473 34.5818 10.2937C34.5818 12.0828 33.754 13.4179 32.5257 13.4179Z" fill="#635BFF"/>
<path fill-rule="evenodd" clip-rule="evenodd" d="M23.0061 3.43124L26.3572 2.71028V0L23.0061 0.70761V3.43124Z" fill="#635BFF"/>
<path d="M26.3572 4.44593H23.0061V16.1282H26.3572V4.44593Z" fill="#635BFF"/>
<path fill-rule="evenodd" clip-rule="evenodd" d="M19.4148 5.43391L19.2012 4.44593H16.3174V16.1282H19.6552V8.21095C20.4429 7.18291 21.778 7.36983 22.1919 7.51669V4.44593C21.7646 4.28572 20.2026 3.99199 19.4148 5.43391Z" fill="#635BFF"/>
<path fill-rule="evenodd" clip-rule="evenodd" d="M12.7395 1.54873L9.48186 2.24299L9.46851 12.9372C9.46851 14.9132 10.9505 16.3685 12.9265 16.3685C14.0213 16.3685 14.8223 16.1682 15.2629 15.9279V13.2176C14.8357 13.3912 12.7262 14.0053 12.7262 12.0294V7.28972H15.2629V4.44593H12.7262L12.7395 1.54873Z" fill="#635BFF"/>
<path fill-rule="evenodd" clip-rule="evenodd" d="M3.71378 7.83712C3.71378 7.31642 4.14101 7.11616 4.84862 7.11616C5.86331 7.11616 7.14502 7.42323 8.1597 7.97063V4.83311C7.05156 4.39252 5.95677 4.21896 4.84862 4.21896C2.13834 4.21896 0.335938 5.63418 0.335938 7.99733C0.335938 11.6822 5.40937 11.0948 5.40937 12.6836C5.40937 13.2977 4.87532 13.498 4.12766 13.498C3.01952 13.498 1.6043 13.0441 0.4828 12.4299V15.6075C1.72446 16.1415 2.97946 16.3685 4.12766 16.3685C6.9047 16.3685 8.81391 14.9933 8.81391 12.6035C8.80056 8.62483 3.71378 9.33244 3.71378 7.83712Z" fill="#635BFF"/>
</svg>
