<svg width="48" height="20" viewBox="0 0 48 15" fill="none" xmlns="http://www.w3.org/2000/svg">
<g clip-path="url(#clip0)">
<path d="M21.0719 14.7836H17.3174L19.6657 0.263208H23.42L21.0719 14.7836Z" fill="#00579F"/>
<path d="M34.6825 0.618191C33.9419 0.324391 32.7673 0 31.315 0C27.6072 0 24.9963 1.97714 24.9803 4.80386C24.9495 6.88941 26.8496 8.04777 28.2708 8.74316C29.7234 9.45374 30.2172 9.91754 30.2172 10.5509C30.2024 11.5237 29.0434 11.9721 27.9624 11.9721C26.4635 11.9721 25.6603 11.7409 24.4397 11.1997L23.9453 10.9677L23.4199 14.2272C24.3005 14.6284 25.9229 14.9844 27.6072 15C31.5468 15 34.1115 13.0535 34.1419 10.0411C34.1569 8.38818 33.1535 7.12162 30.9904 6.08664C29.6772 5.42226 28.873 4.97427 28.873 4.29449C28.8884 3.6765 29.5532 3.04353 31.0355 3.04353C32.2561 3.01253 33.1529 3.30591 33.8323 3.59951L34.1719 3.7537L34.6825 0.618191Z" fill="#00579F"/>
<path d="M39.6724 9.63954C39.9816 8.80536 41.1714 5.57685 41.1714 5.57685C41.1558 5.60785 41.4799 4.72728 41.6653 4.18669L41.9277 5.43786C41.9277 5.43786 42.6387 8.91356 42.7931 9.63954C42.2063 9.63954 40.414 9.63954 39.6724 9.63954ZM44.3069 0.263208H41.4027C40.5072 0.263208 39.8268 0.525595 39.4404 1.46797L33.8635 14.7834H37.803C37.803 14.7834 38.4516 12.9912 38.591 12.6053C39.0232 12.6053 42.8555 12.6053 43.4115 12.6053C43.5193 13.115 43.8595 14.7834 43.8595 14.7834H47.3358L44.3069 0.263208Z" fill="#00579F"/>
<path d="M14.1814 0.263208L10.5045 10.1647L10.1027 8.15659C9.42295 5.83945 7.29101 3.32193 4.91187 2.07015L8.27978 14.7682H12.2501L18.1515 0.263208H14.1814Z" fill="#00579F"/>
<path d="M7.09024 0.263208H1.04959L0.987793 0.556597C5.69988 1.76157 8.8206 4.6661 10.1028 8.1572L8.7896 1.48378C8.57341 0.556392 7.90902 0.2938 7.09024 0.263208Z" fill="#FAA61A"/>
</g>
<defs>
<clipPath id="clip0">
<rect width="46.3481" height="15" fill="white" transform="translate(0.987793)"/>
</clipPath>
</defs>
</svg>
