<svg width="269" height="269" viewBox="0 0 269 269" fill="none" xmlns="http://www.w3.org/2000/svg">
<path d="M186.422 44.116C186.422 44.116 155.412 24.8879 120.727 37.8429C86.0423 50.798 64.6675 86.4889 46.6069 114.874C28.5462 143.259 32.2799 176.781 54.8437 196.435C77.4074 216.088 96.8722 198.178 131.347 204.338C165.822 210.498 174.355 217.659 205.591 202.987C236.828 188.316 248.475 140.633 230.802 99.8313C213.129 59.0294 186.422 44.116 186.422 44.116Z" fill="#407BFF"/>
<path opacity="0.7" d="M186.422 44.116C186.422 44.116 155.412 24.8879 120.727 37.8429C86.0423 50.798 64.6675 86.4889 46.6069 114.874C28.5462 143.259 32.2799 176.781 54.8437 196.435C77.4074 216.088 96.8722 198.178 131.347 204.338C165.822 210.498 174.355 217.659 205.591 202.987C236.828 188.316 248.475 140.633 230.802 99.8313C213.129 59.0294 186.422 44.116 186.422 44.116Z" fill="white"/>
<path d="M167.695 69.402C167.157 66.5237 166 62.1067 163.869 60.6111C160.641 58.3354 157.36 63.215 153.454 63.8391C149.548 64.4632 155.729 51.7987 148.897 49.5175C142.064 47.2364 140.106 55.7045 137.825 59.6104C135.544 63.5163 132.294 57.9964 129.362 58.9594C126.43 59.9224 128.06 65.141 125.133 65.792C122.207 66.443 117.322 62.5371 115.041 64.8182C112.889 66.9702 112.765 67.3899 109.661 69.3751L167.695 69.402Z" fill="#407BFF"/>
<path d="M78.6018 146.094C78.2468 144.211 77.4935 141.316 76.0947 140.337C73.9428 138.847 71.8338 142.043 69.2729 142.489C66.712 142.936 70.7632 134.597 66.287 133.107C61.8109 131.616 60.5304 137.158 59.0402 139.713C57.5499 142.269 55.414 138.637 53.4934 139.288C51.5727 139.939 52.6433 143.339 50.7227 143.764C48.802 144.189 45.6063 141.612 44.1107 143.13C42.6957 144.544 42.6204 144.808 40.6083 146.11L78.6018 146.094Z" fill="#407BFF"/>
<path d="M234.939 129.185C233.863 123.385 231.512 114.465 227.219 111.431C220.65 106.836 214.086 116.681 206.237 117.994C198.387 119.307 210.831 93.7089 197.048 89.1143C183.264 84.5198 179.321 101.585 174.726 109.461C170.132 117.338 163.552 106.207 157.634 108.176C151.716 110.145 155.008 120.652 149.101 121.965C143.194 123.277 133.338 115.396 128.743 119.974C124.38 124.337 124.149 125.155 117.951 129.163L234.939 129.185Z" fill="#407BFF"/>
<path opacity="0.4" d="M167.695 69.402C167.157 66.5237 166 62.1067 163.869 60.6111C160.641 58.3354 157.36 63.215 153.454 63.8391C149.548 64.4632 155.729 51.7987 148.897 49.5175C142.064 47.2364 140.106 55.7045 137.825 59.6104C135.544 63.5163 132.294 57.9964 129.362 58.9594C126.43 59.9224 128.06 65.141 125.133 65.792C122.207 66.443 117.322 62.5371 115.041 64.8182C112.889 66.9702 112.765 67.3899 109.661 69.3751L167.695 69.402Z" fill="white"/>
<path opacity="0.4" d="M78.6018 146.094C78.2468 144.211 77.4935 141.316 76.0947 140.337C73.9428 138.847 71.8338 142.043 69.2729 142.489C66.712 142.936 70.7632 134.597 66.287 133.107C61.8109 131.616 60.5304 137.158 59.0402 139.713C57.5499 142.269 55.414 138.637 53.4934 139.288C51.5727 139.939 52.6433 143.339 50.7227 143.764C48.802 144.189 45.6063 141.612 44.1107 143.13C42.6957 144.544 42.6204 144.808 40.6083 146.11L78.6018 146.094Z" fill="white"/>
<path opacity="0.4" d="M234.939 129.185C233.863 123.385 231.512 114.465 227.219 111.431C220.65 106.836 214.086 116.681 206.237 117.994C198.387 119.307 210.831 93.7089 197.048 89.1143C183.264 84.5198 179.321 101.585 174.726 109.461C170.132 117.338 163.552 106.207 157.634 108.176C151.716 110.145 155.008 120.652 149.101 121.965C143.194 123.277 133.338 115.396 128.743 119.974C124.38 124.337 124.149 125.155 117.951 129.163L234.939 129.185Z" fill="white"/>
<path d="M199.324 211.192C199.324 211.192 206.64 211.918 210.353 216.454C211.685 214.838 213.359 213.539 215.254 212.648C217.149 211.758 219.218 211.299 221.312 211.305C223.031 209.23 224.125 206.709 224.467 204.036C224.809 201.363 224.385 198.648 223.244 196.206C222.102 193.765 220.291 191.698 218.021 190.247C215.751 188.795 213.115 188.018 210.42 188.006C207.725 187.994 205.082 188.748 202.8 190.18C200.517 191.611 198.687 193.662 197.525 196.093C196.362 198.524 195.914 201.236 196.232 203.911C196.551 206.587 197.623 209.118 199.324 211.208V211.192Z" fill="#407BFF"/>
<path opacity="0.3" d="M199.324 211.192C199.324 211.192 206.64 211.918 210.353 216.454C211.685 214.838 213.359 213.539 215.254 212.648C217.149 211.758 219.218 211.299 221.312 211.305C223.031 209.23 224.125 206.709 224.467 204.036C224.809 201.363 224.385 198.648 223.244 196.206C222.102 193.765 220.291 191.698 218.021 190.247C215.751 188.795 213.115 188.018 210.42 188.006C207.725 187.994 205.082 188.748 202.8 190.18C200.517 191.611 198.687 193.662 197.525 196.093C196.362 198.524 195.914 201.236 196.232 203.911C196.551 206.587 197.623 209.118 199.324 211.208V211.192Z" fill="white"/>
<path d="M210.111 189.005L209.863 225.696H211.1L210.111 189.005Z" fill="#263238"/>
<path d="M210.482 215.071C210.482 215.071 212.951 210.627 217.4 209.266C217.4 209.266 212.704 210.38 210.358 214.205L210.482 215.071Z" fill="#263238"/>
<path d="M210.482 202.471C210.482 202.471 212.951 198.027 217.4 196.666C217.4 196.666 212.704 197.78 210.358 201.605L210.482 202.471Z" fill="#263238"/>
<path d="M210.482 208.771C210.482 208.771 212.951 204.327 217.4 202.966C217.4 202.966 212.704 204.08 210.358 207.905L210.482 208.771Z" fill="#263238"/>
<path d="M210.116 205.683C210.116 205.683 207.733 201.239 203.439 199.878C203.439 199.878 207.969 200.991 210.234 204.817L210.116 205.683Z" fill="#263238"/>
<path d="M210.116 211.859C210.116 211.859 207.733 207.415 203.439 206.054C203.439 206.054 207.969 207.168 210.234 210.993L210.116 211.859Z" fill="#263238"/>
<path d="M172.128 202.783C172.128 202.783 181.925 203.757 186.896 209.831C186.896 209.831 192.141 202.794 201.567 202.934C203.87 200.155 205.337 196.779 205.796 193.199C206.255 189.619 205.687 185.983 204.16 182.713C202.632 179.443 200.207 176.674 197.167 174.729C194.126 172.784 190.596 171.742 186.987 171.726C183.378 171.709 179.838 172.719 176.78 174.636C173.722 176.553 171.272 179.299 169.714 182.555C168.157 185.811 167.556 189.442 167.983 193.026C168.409 196.61 169.844 199.999 172.122 202.799L172.128 202.783Z" fill="#407BFF"/>
<path opacity="0.5" d="M172.128 202.783C172.128 202.783 181.925 203.757 186.896 209.831C186.896 209.831 192.141 202.794 201.567 202.934C203.87 200.155 205.337 196.779 205.796 193.199C206.255 189.619 205.687 185.983 204.16 182.713C202.632 179.443 200.207 176.674 197.167 174.729C194.126 172.784 190.596 171.742 186.987 171.726C183.378 171.709 179.838 172.719 176.78 174.636C173.722 176.553 171.272 179.299 169.714 182.555C168.157 185.811 167.556 189.442 167.983 193.026C168.409 196.61 169.844 199.999 172.122 202.799L172.128 202.783Z" fill="white"/>
<path d="M186.568 173.075L186.24 222.205H187.891L186.568 173.075Z" fill="#263238"/>
<path d="M187.068 207.98C187.068 207.98 190.377 202.024 196.332 200.206C196.332 200.206 190.043 201.691 186.901 206.818L187.068 207.98Z" fill="#263238"/>
<path d="M187.068 191.103C187.068 191.103 190.377 185.147 196.332 183.329C196.332 183.329 190.043 184.819 186.901 189.946L187.068 191.103Z" fill="#263238"/>
<path d="M187.068 199.544C187.068 199.544 190.377 193.589 196.332 191.765C196.332 191.765 190.043 193.255 186.901 198.382L187.068 199.544Z" fill="#263238"/>
<path d="M186.578 195.407C186.578 195.407 183.383 189.451 177.637 187.633C177.637 187.633 183.7 189.118 186.734 194.25L186.578 195.407Z" fill="#263238"/>
<path d="M186.578 203.676C186.578 203.676 183.383 197.72 177.637 195.902C177.637 195.902 183.7 197.392 186.734 202.519L186.578 203.676Z" fill="#263238"/>
<path d="M86.5695 202.525C86.5695 202.525 96.6032 203.515 101.687 209.734C101.687 209.734 107.067 202.53 116.708 202.681C119.069 199.837 120.573 196.381 121.045 192.715C121.517 189.05 120.937 185.325 119.374 181.976C117.811 178.627 115.328 175.791 112.216 173.799C109.103 171.807 105.488 170.74 101.792 170.722C98.0965 170.705 94.4719 171.739 91.3407 173.702C88.2096 175.666 85.7008 178.478 84.1067 181.813C82.5126 185.147 81.8987 188.866 82.3366 192.536C82.7746 196.205 84.2462 199.675 86.5802 202.541L86.5695 202.525Z" fill="#407BFF"/>
<path opacity="0.3" d="M86.5695 202.525C86.5695 202.525 96.6032 203.515 101.687 209.734C101.687 209.734 107.067 202.53 116.708 202.681C119.069 199.837 120.573 196.381 121.045 192.715C121.517 189.05 120.937 185.325 119.374 181.976C117.811 178.627 115.328 175.791 112.216 173.799C109.103 171.807 105.488 170.74 101.792 170.722C98.0965 170.705 94.4719 171.739 91.3407 173.702C88.2096 175.666 85.7008 178.478 84.1067 181.813C82.5126 185.147 81.8987 188.866 82.3366 192.536C82.7746 196.205 84.2462 199.675 86.5802 202.541L86.5695 202.525Z" fill="white"/>
<path d="M101.354 172.112L101.015 222.404H102.709L101.354 172.112Z" fill="#263238"/>
<path d="M101.865 207.84C101.865 207.84 105.249 201.75 111.366 199.883C111.366 199.883 104.91 201.406 101.714 206.657L101.865 207.84Z" fill="#263238"/>
<path d="M101.865 190.57C101.865 190.57 105.249 184.475 111.344 182.613C111.344 182.613 104.888 184.136 101.693 189.381L101.865 190.57Z" fill="#263238"/>
<path d="M101.865 199.205C101.865 199.205 105.249 193.11 111.344 191.248C111.344 191.248 104.888 192.771 101.693 198.022L101.865 199.205Z" fill="#263238"/>
<path d="M101.359 194.971C101.359 194.971 98.0936 188.876 92.2133 187.014C92.2133 187.014 98.4218 188.537 101.526 193.788L101.359 194.971Z" fill="#263238"/>
<path d="M101.359 203.439C101.359 203.439 98.0936 197.344 92.2133 195.477C92.2133 195.477 98.4218 197.005 101.526 202.25L101.359 203.439Z" fill="#263238"/>
<path d="M52.5518 212.392C52.5518 212.392 60.3367 213.161 64.2856 217.987C64.2856 217.987 68.4551 212.397 75.9387 212.51C77.7692 210.303 78.9349 207.621 79.3001 204.777C79.6654 201.933 79.2151 199.043 78.0017 196.445C76.7884 193.847 74.8618 191.647 72.4465 190.102C70.0312 188.556 67.2265 187.729 64.3591 187.715C61.4917 187.702 58.6795 188.504 56.25 190.027C53.8206 191.55 51.8739 193.733 50.6367 196.319C49.3995 198.906 48.9226 201.791 49.2617 204.639C49.6007 207.486 50.7418 210.178 52.5518 212.402V212.392Z" fill="#407BFF"/>
<path opacity="0.5" d="M52.5518 212.392C52.5518 212.392 60.3367 213.161 64.2856 217.987C64.2856 217.987 68.4551 212.397 75.9387 212.51C77.7692 210.303 78.9349 207.621 79.3001 204.777C79.6654 201.933 79.2151 199.043 78.0017 196.445C76.7884 193.847 74.8618 191.647 72.4465 190.102C70.0312 188.556 67.2265 187.729 64.3591 187.715C61.4917 187.702 58.6795 188.504 56.25 190.027C53.8206 191.55 51.8739 193.733 50.6367 196.319C49.3995 198.906 48.9226 201.791 49.2617 204.639C49.6007 207.486 50.7418 210.178 52.5518 212.402V212.392Z" fill="white"/>
<path d="M64.0274 188.79L63.7638 227.816H65.0765L64.0274 188.79Z" fill="#263238"/>
<path d="M64.4201 216.513C64.4201 216.513 67.051 211.784 71.78 210.336C71.78 210.336 66.7873 211.52 64.291 215.593L64.4201 216.513Z" fill="#263238"/>
<path d="M64.4201 203.111C64.4201 203.111 67.051 198.382 71.78 196.935C71.78 196.935 66.7873 198.119 64.291 202.191L64.4201 203.111Z" fill="#263238"/>
<path d="M64.4201 209.82C64.4201 209.82 67.051 205.086 71.78 203.644C71.78 203.644 66.7873 204.827 64.291 208.9L64.4201 209.82Z" fill="#263238"/>
<path d="M64.0221 206.527C64.0221 206.527 61.4828 201.798 56.9205 200.351C56.9205 200.351 61.7625 201.535 64.1459 205.607L64.0221 206.527Z" fill="#263238"/>
<path d="M64.0221 213.096C64.0221 213.096 61.4828 208.367 56.9205 206.92C56.9205 206.92 61.7625 208.104 64.1459 212.176L64.0221 213.096Z" fill="#263238"/>
<path d="M229.188 223.426L226.132 222.888C225.874 222.748 225.6 222.614 225.309 222.485L227.741 220.053L220.515 220.537L219.789 219.332L217.863 219.811L216.9 217.4L214.248 218.369L213.527 214.996L211.117 216.201L208.706 214.269L207.975 215.738L206.049 215.254L205.387 216.244L204.774 216.088L203.902 214.269L200.943 215.141L199.329 214.78L198.829 214.027H195.724L195.186 213.925L194.955 211.859L191.103 212.101L189.177 209.949L187.488 211.875L186.53 210.896L185.325 211.38L183.636 209.228C183.636 209.228 182.194 211.38 181.231 211.638C180.268 211.897 178.578 209.949 178.578 209.949L177.594 211.262L176.518 211.143L175.7 210.191L174.264 210.896L173.683 210.842L173.279 209.228L170.385 210.191L168.459 208.502L167.329 210.31L166.543 210.256L165.327 209.949L162.675 209.228L161.712 209.707L158.581 207.06V209.798H158.296L155.208 208.034L154.799 209.648H153.949L153.276 208.034L150.414 209.551H149.069L148.94 208.776L144.098 209.26L142.414 206.366L140.967 209.018L139.283 206.608L137.809 209.551H136.195L135.173 208.755L134.936 209.578L133.585 209.616L131.81 208.249L131.568 209.449L129.658 208.744L127.764 209.82H127.398L126.527 208.513L123.632 209.476L122.788 210.041L121.287 210.121L120.985 208.755L117.628 210.369L115.966 210.476C115.401 209.906 114.411 209.018 113.755 209.018C113.451 209.042 113.159 209.143 112.906 209.312C112.653 209.481 112.447 209.711 112.308 209.981L111.366 209.212L110.263 210.864L109.542 210.928L108.719 209.933L106.309 211.138L105.346 208.986L102.693 211.138L102.209 209.449L99.53 211.138L97.8407 209.212L96.1083 212.241L95.5703 212.3L93.9563 210.896L92.5575 212.645L91.5999 212.763L90.341 211.149L89.8568 212.354L87.7048 211.149L86.4996 213.301L84.0894 212.338L81.3725 214.124L78.0853 214.592L76.6542 213.564L75.4491 214.285L73.7598 213.564L73.281 215.012L71.5917 214.528L70.322 215.797L70.0906 215.835L69.402 214.269L67.0133 215.738L65.5714 213.812L63.64 216.222L60.5089 216.459L57.6198 216.701L55.4678 217.664L53.375 218.853L51.8524 218.627L50.4752 219.504L50.3299 219.542L48.7159 219.079L47.5108 219.8L45.3588 219.563L45.0252 221.215C44.4872 221.409 43.9923 221.608 43.4865 221.817C43.0077 221.769 42.5181 221.731 42.2222 221.731C41.9263 221.731 41.5336 222.269 41.1462 222.899C37.6331 224.717 35.4811 226.993 38.2572 229.435C41.9048 232.663 51.1692 231.243 55.4409 230.958C73.7329 229.742 87.5434 225.906 94.645 226.53C101.747 227.154 73.55 241.933 104.044 241.939C134.538 241.944 197.118 238.409 206.264 237.549C215.41 236.688 197.188 233.331 199.808 229.306C202.428 225.282 223.7 228.693 227.278 227.735C229.651 227.101 228.892 225.513 228.128 224.507L229.188 223.426Z" fill="#407BFF"/>
<path opacity="0.4" d="M229.188 223.426L226.132 222.888C225.874 222.748 225.6 222.614 225.309 222.485L227.741 220.053L220.515 220.537L219.789 219.332L217.863 219.811L216.9 217.4L214.248 218.369L213.527 214.996L211.117 216.201L208.706 214.269L207.975 215.738L206.049 215.254L205.387 216.244L204.774 216.088L203.902 214.269L200.943 215.141L199.329 214.78L198.829 214.027H195.724L195.186 213.925L194.955 211.859L191.103 212.101L189.177 209.949L187.488 211.875L186.53 210.896L185.325 211.38L183.636 209.228C183.636 209.228 182.194 211.38 181.231 211.638C180.268 211.897 178.578 209.949 178.578 209.949L177.594 211.262L176.518 211.143L175.7 210.191L174.264 210.896L173.683 210.842L173.279 209.228L170.385 210.191L168.459 208.502L167.329 210.31L166.543 210.256L165.327 209.949L162.675 209.228L161.712 209.707L158.581 207.06V209.798H158.296L155.208 208.034L154.799 209.648H153.949L153.276 208.034L150.414 209.551H149.069L148.94 208.776L144.098 209.26L142.414 206.366L140.967 209.018L139.283 206.608L137.809 209.551H136.195L135.173 208.755L134.936 209.578L133.585 209.616L131.81 208.249L131.568 209.449L129.658 208.744L127.764 209.82H127.398L126.527 208.513L123.632 209.476L122.788 210.041L121.287 210.121L120.985 208.755L117.628 210.369L115.966 210.476C115.401 209.906 114.411 209.018 113.755 209.018C113.451 209.042 113.159 209.143 112.906 209.312C112.653 209.481 112.447 209.711 112.308 209.981L111.366 209.212L110.263 210.864L109.542 210.928L108.719 209.933L106.309 211.138L105.346 208.986L102.693 211.138L102.209 209.449L99.53 211.138L97.8407 209.212L96.1083 212.241L95.5703 212.3L93.9563 210.896L92.5575 212.645L91.5999 212.763L90.341 211.149L89.8568 212.354L87.7048 211.149L86.4996 213.301L84.0894 212.338L81.3725 214.124L78.0853 214.592L76.6542 213.564L75.4491 214.285L73.7598 213.564L73.281 215.012L71.5917 214.528L70.322 215.797L70.0906 215.835L69.402 214.269L67.0133 215.738L65.5714 213.812L63.64 216.222L60.5089 216.459L57.6198 216.701L55.4678 217.664L53.375 218.853L51.8524 218.627L50.4752 219.504L50.3299 219.542L48.7159 219.079L47.5108 219.8L45.3588 219.563L45.0252 221.215C44.4872 221.409 43.9923 221.608 43.4865 221.817C43.0077 221.769 42.5181 221.731 42.2222 221.731C41.9263 221.731 41.5336 222.269 41.1462 222.899C37.6331 224.717 35.4811 226.993 38.2572 229.435C41.9048 232.663 51.1692 231.243 55.4409 230.958C73.7329 229.742 87.5434 225.906 94.645 226.53C101.747 227.154 73.55 241.933 104.044 241.939C134.538 241.944 197.118 238.409 206.264 237.549C215.41 236.688 197.188 233.331 199.808 229.306C202.428 225.282 223.7 228.693 227.278 227.735C229.651 227.101 228.892 225.513 228.128 224.507L229.188 223.426Z" fill="white"/>
<path d="M108.95 74.1041C108.95 74.1041 108.95 71.5702 106.223 69.7194C103.495 67.8687 96.9582 68.9393 94.521 72.0597C92.0839 75.1801 91.8848 77.4397 89.0603 78.3005C86.2358 79.1613 79.796 80.162 75.3198 84.8318C70.8436 89.5017 72.7858 99.0673 74.8356 99.8474C76.8854 100.628 74.346 99.1642 74.6365 96.6194C74.6897 95.9175 74.9367 95.2441 75.3498 94.6742C75.763 94.1043 76.3263 93.6602 76.9768 93.3914C76.9768 93.3914 74.346 97.5825 79.9036 103.043C85.4611 108.504 91.6051 107.24 96.7752 106.164C101.945 105.088 108.278 101.289 108.767 96.8023C109.257 92.3154 107.594 89.7815 108.767 87.7371C109.94 85.6927 114.228 85.9778 114.814 82.0827C115.401 78.1876 113.824 73.0335 108.95 74.1041Z" fill="#263238" stroke="#263238" stroke-linecap="round" stroke-linejoin="round"/>
<path d="M127.732 143.78C127.732 143.78 130.454 140.337 131.498 140.224C132.541 140.111 134.091 142.479 134.769 144.286C135.447 146.094 137.023 149.806 137.023 151.614C137.023 154.772 135.667 155.783 135.108 155.218C134.548 154.653 133.074 151.162 132.289 150.484C131.788 150.066 131.205 149.758 130.578 149.58C130.578 149.58 128.845 145.195 127.732 143.78Z" fill="white" stroke="#263238" stroke-linecap="round" stroke-linejoin="round"/>
<path d="M130.492 141.085C130.492 141.085 133.79 144.383 134.962 147.541C136.135 150.699 136.496 153.782 135.436 155.073" stroke="#263238" stroke-linecap="round" stroke-linejoin="round"/>
<path d="M121.663 168.19C121.663 168.19 124.929 168.416 126.059 168.528C127.189 168.641 127.189 171.348 126.737 173.263C126.285 175.178 125.72 176.421 126.199 178.562C126.677 180.703 125.408 183.071 124.73 184.087C124.052 185.104 122.578 184.878 122.476 184.087C122.373 183.297 122.815 178.675 121.238 176.082C119.662 173.489 119.856 170.008 121.663 168.19Z" fill="white" stroke="#263238" stroke-linecap="round" stroke-linejoin="round"/>
<path d="M124.724 168.394C125.413 169.651 125.661 171.101 125.429 172.515C125.074 174.985 125.548 178.874 125.548 179.816C125.548 180.757 124.251 184.405 123.783 184.523" stroke="#263238" stroke-linecap="round" stroke-linejoin="round"/>
<path d="M136.447 52.186C135.861 52.186 133.521 52.7724 133.327 53.4557C133.133 54.1389 132.843 60.7671 132.843 60.7671C132.843 60.7671 128.743 68.5681 127.382 71.4948C126.021 74.4215 122.406 81.4424 122.406 81.4424L113.34 90.9005C113.34 90.9005 111.974 91.5837 109.634 92.9449C109.413 93.074 109.182 93.2193 108.95 93.3645L104.646 94.3114L100.956 93.612C99.2048 92.2472 97.3819 90.9775 95.4949 89.8083C93.1546 88.4472 91.7881 87.7639 91.7881 87.7639L82.7228 78.3059C82.7228 78.3059 79.1128 71.3119 77.7463 68.3583C76.3797 65.4047 72.2856 57.6306 72.2856 57.6306C72.2856 57.6306 71.995 51.0024 71.8014 50.3191C71.6077 49.6359 69.262 49.0495 68.681 49.0495C68.0999 49.0495 67.0239 52.1699 67.4113 52.8531C67.7986 53.5364 68.8639 53.531 68.8639 53.531C68.8142 54.3103 68.8142 55.092 68.8639 55.8713C68.9607 56.3609 70.4241 57.3347 70.4241 57.3347C70.4241 57.3347 72.4739 65.8189 73.835 71.667C75.1961 77.515 76.9554 81.4209 77.7355 82.1042C78.5156 82.7874 86.2198 90.5831 87.78 93.2193C89.039 95.17 90.5115 96.9745 92.17 98.5993C92.17 98.5993 91.2931 102.903 91.2931 105.227C91.2931 107.552 93.6334 112.539 94.4135 114.782C95.1936 117.026 96.1674 127.458 96.1674 127.753C96.1674 128.049 96.6516 134.478 96.6516 134.478C96.6516 134.478 91.3899 145.986 89.7329 154.175C88.0759 162.363 88.8506 167.049 92.6542 168.803C96.4579 170.557 113.717 172.994 114.207 173.58C114.696 174.167 115.083 174.554 115.767 174.554C116.45 174.554 117.327 174.167 117.919 174.554C118.511 174.941 118.5 175.237 119.183 175.237C119.509 175.281 119.821 175.402 120.092 175.589C120.363 175.776 120.586 176.024 120.743 176.313C120.937 176.701 122.11 175.921 122.497 172.994C122.884 170.067 122.303 168.69 121.717 168.609C121.131 168.528 121.233 167.533 120.259 167.533C119.212 167.6 118.17 167.731 117.139 167.926C116.631 167.773 116.107 167.676 115.578 167.635C114.992 167.635 114.309 167.146 113.916 167.049C113.523 166.952 107.094 164.316 107.094 164.316L106.847 164.187C113.356 160.475 122.589 153.906 122.589 153.906C122.589 153.906 125.241 153.739 126.403 152.744C127.191 152.039 127.911 151.263 128.555 150.425L130.546 149.596C130.52 148.293 130.117 147.026 129.383 145.949C128.227 144.458 127.726 143.797 127.726 143.797C127.726 143.797 124.579 145.287 123.584 145.62C122.589 145.954 121.098 146.115 120.27 146.944C119.441 147.772 117.289 149.429 117.289 149.429L109.999 153.239C109.999 153.239 119.28 141.311 120.437 136.34C121.432 132.079 119.899 127.371 117.359 123.934C115.439 121.351 112.743 119.382 110.699 116.88C109.72 115.692 108.972 114.809 109.042 114.298C109.155 113.507 110.08 109.526 110.919 106.137L113.534 101.122C114.18 100.45 117.063 96.8185 117.332 96.3558C118.892 93.7196 126.597 85.9186 127.377 85.2353C128.157 84.5521 129.911 80.657 131.277 74.8035C132.644 68.9501 134.688 60.4712 134.688 60.4712C134.688 60.4712 136.152 59.4974 136.248 59.0078C136.298 58.2285 136.298 57.4469 136.248 56.6675C136.248 56.6675 137.324 56.6675 137.712 55.9843C138.099 55.301 137.034 52.186 136.447 52.186Z" fill="white" stroke="#263238" stroke-linecap="round" stroke-linejoin="round"/>
<path d="M127.732 143.781C127.732 143.781 124.584 145.271 123.589 145.604C122.594 145.938 121.104 146.099 120.275 146.928C119.447 147.756 117.295 149.413 117.295 149.413L110.005 153.222C110.005 153.222 119.285 141.295 120.442 136.324C121.437 132.063 119.904 127.355 117.364 123.918C116.397 122.675 115.328 121.514 114.169 120.447C112.133 122.224 109.921 123.789 107.568 125.117C104.127 127.135 100.126 127.988 96.1619 127.549C96.1619 127.651 96.1619 127.716 96.1619 127.737C96.1619 128.028 96.6461 134.462 96.6461 134.462C96.6461 134.462 91.3845 145.97 89.7274 154.159C88.0704 162.347 88.8451 167.033 92.6488 168.787C96.4524 170.541 113.711 172.978 114.201 173.564C114.691 174.151 115.078 174.538 115.761 174.538C116.445 174.538 117.321 174.151 117.913 174.538C118.505 174.925 118.494 175.221 119.178 175.221C119.504 175.265 119.815 175.386 120.086 175.572C120.358 175.759 120.581 176.008 120.738 176.297C120.931 176.685 122.104 175.904 122.492 172.978C122.879 170.051 122.298 168.674 121.712 168.593C121.125 168.512 121.227 167.517 120.254 167.517C119.206 167.584 118.164 167.715 117.133 167.91C116.625 167.757 116.102 167.659 115.573 167.619C114.987 167.619 114.303 167.13 113.911 167.033C113.518 166.936 107.089 164.3 107.089 164.3L106.841 164.171C113.351 160.459 122.583 153.89 122.583 153.89C122.583 153.89 125.235 153.723 126.398 152.727C127.185 152.023 127.906 151.247 128.55 150.409L130.54 149.58C130.515 148.277 130.111 147.01 129.378 145.933C128.232 144.442 127.732 143.781 127.732 143.781Z" fill="#263238" stroke="#263238" stroke-linecap="round" stroke-linejoin="round"/>
<path d="M102.833 133.795L104.748 134.699C104.748 134.699 96.743 153.981 95.6025 159.506C94.4619 165.032 95.8284 167.738 97.9697 167.738C100.111 167.738 106.201 164.58 106.201 164.58" stroke="white" stroke-linecap="round" stroke-linejoin="round"/>
<path d="M110.005 153.222C110.005 153.222 105.201 160.324 103.834 161.986" stroke="white" stroke-linecap="round" stroke-linejoin="round"/>
<path d="M70.9243 51.6803C70.9243 51.6803 68.9714 48.9472 68.6809 48.3608C68.3904 47.7744 67.8039 49.4368 68.2881 50.4106C68.5981 51.016 68.993 51.574 69.461 52.0676C69.461 52.0676 68.6809 54.4079 69.8483 55.3817" fill="white"/>
<path d="M70.9243 51.6803C70.9243 51.6803 68.9714 48.9472 68.6809 48.3608C68.3904 47.7744 67.8039 49.4368 68.2881 50.4106C68.5981 51.016 68.993 51.574 69.461 52.0676C69.461 52.0676 68.6809 54.4079 69.8483 55.3817" stroke="#263238" stroke-linecap="round" stroke-linejoin="round"/>
<path d="M133.65 55.3333C133.65 55.3333 135.597 52.6057 135.893 52.0192C136.189 51.4328 136.77 53.0952 136.281 54.069C135.971 54.6736 135.578 55.2315 135.113 55.7261C135.113 55.7261 135.893 58.0664 134.72 59.0401" fill="white"/>
<path d="M133.65 55.3333C133.65 55.3333 135.597 52.6057 135.893 52.0192C136.189 51.4328 136.77 53.0952 136.281 54.069C135.971 54.6736 135.578 55.2315 135.113 55.7261C135.113 55.7261 135.893 58.0664 134.72 59.0401" stroke="#263238" stroke-linecap="round" stroke-linejoin="round"/>
<path d="M92.1808 98.5831C92.1808 98.5831 91.3038 102.887 91.3038 105.211C91.3038 107.535 93.6441 112.523 94.4242 114.766C95.2043 117.01 96.1781 127.441 96.1781 127.737C96.1781 127.818 96.2158 128.394 96.2749 129.179C99.7235 130.142 106.836 130.47 115.315 121.583C113.776 120.017 112.087 118.559 110.704 116.864C109.725 115.675 108.977 114.793 109.047 114.282C109.16 113.491 110.085 109.51 110.925 106.12L113.539 101.106C114.185 100.434 117.069 96.8023 117.338 96.3397C118.898 93.7035 126.602 85.9025 127.382 85.2192C128.162 84.5359 129.916 80.6408 131.283 74.7874C131.783 72.6354 132.359 70.1122 132.934 67.7934C131.834 67.5647 130.77 67.1883 129.771 66.6743C128.829 68.5143 127.904 70.3543 127.382 71.4733C126.016 74.4 122.406 81.4209 122.406 81.4209L113.34 90.879C113.34 90.879 111.974 91.5622 109.633 92.9234C109.413 93.0525 109.182 93.1977 108.95 93.343L104.646 94.2899L100.956 93.612C99.2048 92.2472 97.3819 90.9775 95.4949 89.8083C93.1546 88.4472 91.788 87.7639 91.788 87.7639L82.7227 78.3059C82.7227 78.3059 79.1127 71.3119 77.7462 68.3583C77.1168 67.0133 75.9117 64.6299 74.7926 62.4403C73.8501 62.8364 72.8876 63.1829 71.9089 63.4786C72.5384 66.0933 73.2539 69.1222 73.8457 71.6562C75.2123 77.5097 76.9661 81.4102 77.7462 82.0934C78.5263 82.7767 86.2305 90.5723 87.7907 93.2085C89.0501 95.1574 90.5225 96.96 92.1808 98.5831Z" fill="#407BFF"/>
<path d="M92.4499 88.0975C92.0195 87.8715 91.7882 87.7586 91.7882 87.7586L91.2502 87.1937L86.8547 91.8958C87.1693 92.2933 87.4638 92.7062 87.7371 93.1332L92.4499 88.0975Z" fill="#263238"/>
<path d="M88.3341 84.154L87.2957 83.078L82.4537 86.9031C82.7927 87.2636 83.137 87.6294 83.4706 87.9791L88.3341 84.154Z" fill="#263238"/>
<path d="M96.1674 90.2118L95.4949 89.803L94.8655 89.4371L89.4855 95.6026C89.819 96.0169 90.1472 96.4042 90.4593 96.7539L96.1674 90.2118Z" fill="#263238"/>
<path d="M84.0139 79.624L78.4187 82.7229L79.4947 83.7989L85.0576 80.7108L84.0139 79.624Z" fill="#263238"/>
<path d="M97.7436 91.2556L95.4141 93.8541C95.3076 93.8874 95.2101 93.9444 95.1289 94.0209C95.0265 94.1209 94.9587 94.2509 94.9352 94.3921L91.6534 98.0505C91.9762 98.3841 92.1914 98.5885 92.1914 98.5885C92.1914 98.5885 92.03 99.374 91.8471 100.461L92.4443 99.5569C93.9023 100.181 97.9588 101.305 108.267 101.305C109.321 101.305 110.442 101.293 111.629 101.268C111.738 101.265 111.844 101.24 111.941 101.192C112.308 101.486 112.737 101.692 113.195 101.795L113.55 101.112C113.679 100.977 113.9 100.719 114.169 100.396C113.99 100.408 113.81 100.408 113.631 100.396C111.775 100.17 110.639 96.2159 110.15 92.6597L109.612 92.9556C109.391 93.0848 109.16 93.23 108.929 93.3753L108.735 93.4183C108.816 93.9563 108.907 94.4943 109.025 95.0323C101.897 96.8669 98.1901 95.3766 96.8075 94.5427L98.9595 92.154C98.5883 91.8474 98.174 91.5515 97.7436 91.2556ZM102.758 97.378C104.999 97.3468 107.227 97.036 109.391 96.4526C109.689 97.6202 110.144 98.7422 110.742 99.7882C99.6374 99.9658 95.0482 98.8952 93.4127 98.3249L95.8176 95.6349C96.8398 96.302 99.024 97.378 102.758 97.378Z" fill="#263238"/>
<path d="M78.7952 70.5265L74.0554 72.5332C74.1845 73.0389 74.3083 73.5231 74.4374 73.9966L79.4623 71.8446L78.7952 70.5265Z" fill="#263238"/>
<path d="M76.6057 66.0126L72.8397 67.4061C72.9527 67.8956 73.0711 68.3798 73.184 68.864L77.2675 67.3576L76.6057 66.0126Z" fill="#263238"/>
<path d="M81.7167 76.3315C81.5069 75.928 81.2809 75.476 81.0388 75.0026L75.7449 78.1068C75.9332 78.6179 76.1161 79.086 76.2829 79.5057L81.7167 76.3315Z" fill="#263238"/>
<path d="M124.724 76.8587C124.488 77.3375 124.251 77.8056 124.025 78.2467C125.494 79.5756 127.183 81.0336 128.937 82.3732C129.12 81.932 129.303 81.4478 129.475 80.9152C127.791 79.5917 126.145 78.1553 124.724 76.8587Z" fill="#263238"/>
<path d="M109.327 112.899C109.424 112.453 109.542 111.92 109.677 111.339C101.827 112.415 96.0545 111.474 92.7834 110.586C93.0148 111.183 93.2461 111.77 93.4721 112.324C96.4988 113.024 99.5974 113.368 102.704 113.346C104.919 113.342 107.132 113.193 109.327 112.899Z" fill="#263238"/>
<path d="M126.537 73.2218C127.96 74.2591 129.434 75.2234 130.954 76.1109C131.067 75.6805 131.175 75.2393 131.283 74.7874C131.283 74.7228 131.283 74.6529 131.326 74.5883C129.904 73.7467 128.527 72.8326 127.199 71.8499C127.011 72.2588 126.785 72.7215 126.537 73.2218Z" fill="#263238"/>
<path d="M91.3092 104.969C91.3092 105.05 91.3092 105.136 91.3092 105.211C91.3198 105.633 91.3721 106.053 91.4652 106.465C94.6448 106.228 101.225 106.077 110.586 107.541C110.699 107.067 110.817 106.594 110.93 106.131V106.083C101.284 104.55 94.5749 104.711 91.3092 104.969Z" fill="#263238"/>
<path d="M113.464 119.764C113.093 119.409 112.732 119.049 112.388 118.688C106.777 122.454 100.1 123.993 95.8984 124.606C95.9576 125.144 96.006 125.682 96.0491 126.113C100.439 125.494 107.498 123.885 113.464 119.764Z" fill="#263238"/>
<path d="M95.1074 118.236C95.1774 118.72 95.2473 119.232 95.3172 119.753C95.8552 119.753 96.4793 119.753 97.1249 119.753C101.986 119.803 106.827 119.119 111.484 117.725C111.221 117.435 110.946 117.144 110.704 116.837L110.414 116.488C104.7 118.199 98.7228 118.36 95.1074 118.236Z" fill="#263238"/>
<path d="M121.303 82.5669C122.589 84.1809 123.993 85.7357 125.392 87.1883L126.468 86.1123C125.069 84.6436 123.643 83.0565 122.363 81.4694L121.303 82.5669Z" fill="#263238"/>
<path d="M121.722 91.0458L122.745 89.9698C121.111 88.7202 119.628 87.2868 118.322 85.698L117.278 86.774C118.596 88.3589 120.087 89.7917 121.722 91.0458Z" fill="#263238"/>
<path d="M117.338 96.3397C117.513 96.0458 117.706 95.762 117.913 95.4896C117.079 93.9187 115.863 91.5838 114.787 89.3618L113.711 90.5131C114.9 92.9503 116.213 95.4412 116.982 96.8669C117.149 96.6087 117.284 96.4204 117.338 96.3397Z" fill="#263238"/>
<path opacity="0.25" d="M132.794 67.788C130.492 72.8667 126.091 82.5723 125.219 84.5037C124.03 87.1506 114.642 96.6679 113.055 97.5932C111.468 98.5186 110.543 100.767 109.881 103.145C109.252 105.41 107.428 107.197 107.256 109.644C106.352 108.956 104.566 108.38 102.08 108.17C97.3187 107.772 92.8264 108.967 92.8264 104.603C92.8264 100.24 95.6024 95.9954 95.7369 94.6826C95.8714 93.3699 93.2245 95.7586 91.901 94.8171C90.5775 93.8756 81.5876 83.5783 78.9406 80.2911C77.2567 78.1822 74.2654 69.4558 72.3178 63.4033L71.9089 63.5324C72.5384 66.1471 73.2539 69.1761 73.8457 71.71C75.2123 77.5635 76.9661 81.464 77.7462 82.1419C78.5263 82.8197 86.2305 90.6261 87.7907 93.2623C89.0498 95.2131 90.5222 97.0175 92.1808 98.6423C92.1808 98.6423 91.3038 102.946 91.3038 105.27C91.3038 107.595 93.6441 112.582 94.4242 114.825C95.2043 117.069 96.1781 127.501 96.1781 127.797C96.1781 127.877 96.2158 128.453 96.2749 129.238C96.7511 129.369 97.2343 129.474 97.7222 129.55C97.6307 125.462 96.9528 116.94 98.1149 115.078C99.3792 113.055 105.48 112.964 107.261 111.807C107.337 113.966 108.108 116.042 109.461 117.725C110.424 118.989 112.619 120.716 114.723 122.228L115.293 121.647C113.755 120.082 112.065 118.624 110.683 116.929C109.703 115.74 108.956 114.858 109.026 114.347C109.139 113.556 110.064 109.574 110.903 106.185L113.518 101.171C114.163 100.498 117.047 96.8669 117.316 96.4042C118.876 93.768 126.58 85.967 127.361 85.2838C128.141 84.6005 129.895 80.7054 131.261 74.852C131.761 72.7 132.337 70.1767 132.913 67.858L132.794 67.788Z" fill="black"/>
<path d="M92.1808 98.5831C92.1808 98.5831 91.3038 102.887 91.3038 105.211C91.3038 107.535 93.6441 112.523 94.4242 114.766C95.2043 117.01 96.1781 127.441 96.1781 127.737C96.1781 127.818 96.2158 128.394 96.2749 129.179C99.7235 130.142 106.836 130.47 115.315 121.583C113.776 120.017 112.087 118.559 110.704 116.864C109.725 115.675 108.977 114.793 109.047 114.282C109.16 113.491 110.085 109.51 110.925 106.12L113.539 101.106C114.185 100.434 117.069 96.8023 117.338 96.3397C118.898 93.7035 126.602 85.9025 127.382 85.2192C128.162 84.5359 129.916 80.6408 131.283 74.7874C131.783 72.6354 132.359 70.1122 132.934 67.7934C131.834 67.5647 130.77 67.1883 129.771 66.6743C128.829 68.5143 127.904 70.3543 127.382 71.4733C126.016 74.4 122.406 81.4209 122.406 81.4209L113.34 90.879C113.34 90.879 111.974 91.5622 109.633 92.9234C109.413 93.0525 109.182 93.1977 108.95 93.343L104.646 94.2899L100.956 93.612C99.2048 92.2472 97.3819 90.9775 95.4949 89.8083C93.1546 88.4472 91.788 87.7639 91.788 87.7639L82.7227 78.3059C82.7227 78.3059 79.1127 71.3119 77.7462 68.3583C77.1168 67.0133 75.9117 64.6299 74.7926 62.4403C73.8501 62.8364 72.8876 63.1829 71.9089 63.4786C72.5384 66.0933 73.2539 69.1222 73.8457 71.6562C75.2123 77.5097 76.9661 81.4102 77.7462 82.0934C78.5263 82.7767 86.2305 90.5723 87.7907 93.2085C89.0501 95.1574 90.5225 96.96 92.1808 98.5831V98.5831Z" stroke="#263238" stroke-linecap="round" stroke-linejoin="round"/>
<path d="M99.9818 85.9993C99.9818 85.9993 100.079 92.1433 99.589 93.6067C99.0994 95.07 96.361 97.9107 97.5446 100.24C98.7282 102.57 103.005 99.9443 104.539 97.1198C106.072 94.2953 105.324 93.413 105.324 93.413V89.109L99.9818 85.9993Z" fill="white"/>
<path d="M105.346 89.1197L99.9656 85.9993C99.9656 85.9993 100.062 92.1433 99.5728 93.6066C99.5015 93.8092 99.4133 94.0053 99.3092 94.1931C100.331 94.5234 101.427 94.5477 102.462 94.263C103.55 93.8045 104.528 93.1184 105.329 92.2509L105.346 89.1197Z" fill="#407BFF"/>
<path opacity="0.5" d="M105.346 89.1197L99.9656 85.9993C99.9656 85.9993 100.062 92.1433 99.5728 93.6066C99.5015 93.8092 99.4133 94.0053 99.3092 94.1931C100.331 94.5234 101.427 94.5477 102.462 94.263C103.55 93.8045 104.528 93.1184 105.329 92.2509L105.346 89.1197Z" fill="white"/>
<path d="M99.9818 85.9993C99.9818 85.9993 100.079 92.1433 99.589 93.6067C99.0994 95.07 96.361 97.9107 97.5446 100.24C98.7282 102.57 103.005 99.9443 104.539 97.1198C106.072 94.2953 105.324 93.413 105.324 93.413V89.109L99.9818 85.9993Z" stroke="#263238" stroke-linecap="round" stroke-linejoin="round"/>
<path d="M98.9057 81.9051C98.9057 81.9051 97.055 80.1513 96.5654 81.4209C96.0758 82.6906 97.3455 84.5413 98.0288 84.735L98.712 84.9287C99.0149 86.3185 99.6899 87.5998 100.665 88.6355C102.225 90.1957 103.979 90.9758 105.927 90.002C107.874 89.0283 109.44 86.5857 109.924 83.6644C110.219 82.2209 110.318 80.7443 110.22 79.2743C110.22 78.7847 109.343 75.277 106.804 74.4C104.264 73.5231 104.56 74.5937 102.613 76.8372C101.264 78.4411 100.026 80.1343 98.9057 81.9051Z" fill="white"/>
<path d="M109.687 77.472C109.849 79.086 110.118 83.2717 108.956 85.2784C107.503 87.7855 106.045 90.1688 103.14 88.9798C100.235 87.7909 99.3039 84.7458 99.3039 84.7458C99.3039 84.7458 98.513 84.8803 97.3187 83.8204C97.1964 83.7059 97.0542 83.6147 96.899 83.5514C97.1354 84.0607 97.5323 84.4783 98.0289 84.7404L98.7121 84.9341C99.0149 86.3239 99.69 87.6052 100.665 88.6409C102.225 90.2011 103.979 90.9812 105.927 90.0074C107.874 89.0336 109.44 86.5911 109.924 83.6698C110.219 82.2263 110.318 80.7497 110.22 79.2797C110.133 78.654 109.954 78.0447 109.687 77.472Z" fill="#407BFF"/>
<path opacity="0.5" d="M109.687 77.472C109.849 79.086 110.118 83.2717 108.956 85.2784C107.503 87.7855 106.045 90.1688 103.14 88.9798C100.235 87.7909 99.3039 84.7458 99.3039 84.7458C99.3039 84.7458 98.513 84.8803 97.3187 83.8204C97.1964 83.7059 97.0542 83.6147 96.899 83.5514C97.1354 84.0607 97.5323 84.4783 98.0289 84.7404L98.7121 84.9341C99.0149 86.3239 99.69 87.6052 100.665 88.6409C102.225 90.2011 103.979 90.9812 105.927 90.0074C107.874 89.0336 109.44 86.5911 109.924 83.6698C110.219 82.2263 110.318 80.7497 110.22 79.2797C110.133 78.654 109.954 78.0447 109.687 77.472Z" fill="white"/>
<path d="M98.9057 81.9051C98.9057 81.9051 97.055 80.1513 96.5654 81.4209C96.0758 82.6906 97.3455 84.5413 98.0288 84.735L98.712 84.9287C99.0149 86.3185 99.6899 87.5998 100.665 88.6355C102.225 90.1957 103.979 90.9758 105.927 90.002C107.874 89.0283 109.44 86.5857 109.924 83.6644C110.219 82.2209 110.318 80.7443 110.22 79.2743C110.22 78.7847 109.343 75.277 106.804 74.4C104.264 73.5231 104.56 74.5937 102.613 76.8372C101.264 78.4411 100.026 80.1343 98.9057 81.9051V81.9051Z" stroke="#263238" stroke-linecap="round" stroke-linejoin="round"/>
<path d="M107.003 79.9576C107.003 79.9576 106.32 81.2219 106.61 81.5178C106.901 81.8137 107.88 82.3947 107.39 82.6852C106.928 82.8848 106.43 82.9856 105.927 82.9811" stroke="#263238" stroke-linecap="round" stroke-linejoin="round"/>
<path d="M103.102 83.39C103.102 83.39 104.27 84.7565 107.977 84.267C107.977 84.267 105.733 86.5104 104.749 86.5104C103.764 86.5104 103.102 83.39 103.102 83.39Z" stroke="#263238" stroke-linecap="round" stroke-linejoin="round"/>
<path d="M102.419 80.2481C102.419 80.2481 103.785 79.7639 104.571 80.544" stroke="#263238" stroke-linecap="round" stroke-linejoin="round"/>
<path d="M107.293 81.0282C107.293 81.0282 108.853 80.544 109.144 81.6146" stroke="#263238" stroke-linecap="round" stroke-linejoin="round"/>
<path d="M102.322 78.591C102.628 78.2376 103.038 77.9908 103.494 77.8863C103.95 77.7818 104.427 77.8252 104.856 78.01" stroke="#263238" stroke-linecap="round" stroke-linejoin="round"/>
<path d="M107.487 79.086C107.487 79.086 108.757 77.9132 109.639 80.0598" stroke="#263238" stroke-linecap="round" stroke-linejoin="round"/>
</svg>
