<svg width="269" height="269" viewBox="0 0 269 269" fill="none" xmlns="http://www.w3.org/2000/svg">
<path d="M224.787 125.203C225.402 116.774 224.99 108.301 223.561 99.9712C222.203 92.4929 219.851 85.2299 216.567 78.3758C200.071 43.9116 160.948 21.8213 122.955 29.4824C101.973 33.7057 76.2992 48.3931 69.6495 70.0637C64.9474 85.3806 66.9595 102.155 59.4652 116.708C51.7718 131.702 43.9869 144.98 46.0152 162.648C48.1672 181.575 61.0092 198.108 76.9771 208.491C96.8024 221.403 122.944 228.526 146.546 226.869C192.916 223.62 221.785 170.761 224.787 125.203Z" fill="#407BFF"/>
<path opacity="0.8" d="M224.787 125.203C225.402 116.774 224.99 108.301 223.561 99.9712C222.203 92.4929 219.851 85.2299 216.567 78.3758C200.071 43.9116 160.948 21.8213 122.955 29.4824C101.973 33.7057 76.2992 48.3931 69.6495 70.0637C64.9474 85.3806 66.9595 102.155 59.4652 116.708C51.7718 131.702 43.9869 144.98 46.0152 162.648C48.1672 181.575 61.0092 198.108 76.9771 208.491C96.8024 221.403 122.944 228.526 146.546 226.869C192.916 223.62 221.785 170.761 224.787 125.203Z" fill="white"/>
<path opacity="0.2" d="M136.431 176.728C169.448 176.728 196.214 149.962 196.214 116.945C196.214 83.9281 169.448 57.1625 136.431 57.1625C103.414 57.1625 76.6488 83.9281 76.6488 116.945C76.6488 149.962 103.414 176.728 136.431 176.728Z" fill="#263238"/>
<path d="M136.431 172.036C166.857 172.036 191.522 147.371 191.522 116.945C191.522 86.519 166.857 61.8539 136.431 61.8539C106.005 61.8539 81.3401 86.519 81.3401 116.945C81.3401 147.371 106.005 172.036 136.431 172.036Z" fill="#407BFF" stroke="#263238" stroke-miterlimit="10"/>
<g opacity="0.2">
<path opacity="0.2" d="M136.431 118.747C136.191 118.749 135.953 118.702 135.731 118.61C135.509 118.517 135.308 118.381 135.14 118.209L100.488 82.6207C100.171 82.2751 100.002 81.8199 100.015 81.3515C100.029 80.8832 100.224 80.4385 100.56 80.1117C100.896 79.785 101.346 79.6019 101.814 79.6012C102.283 79.6006 102.733 79.7824 103.07 80.1082L137.728 115.67C137.976 115.924 138.143 116.245 138.209 116.594C138.275 116.942 138.237 117.303 138.099 117.629C137.961 117.956 137.73 118.235 137.434 118.431C137.138 118.627 136.792 118.732 136.437 118.731L136.431 118.747Z" fill="#263238"/>
</g>
<path opacity="0.2" d="M120.889 129.147C120.501 129.149 120.123 129.025 119.811 128.795C119.499 128.565 119.269 128.241 119.156 127.87C119.043 127.499 119.053 127.101 119.184 126.736C119.314 126.371 119.56 126.058 119.883 125.844L135.431 115.444C135.828 115.192 136.308 115.106 136.768 115.204C137.229 115.301 137.632 115.575 137.894 115.966C138.155 116.357 138.253 116.835 138.167 117.297C138.08 117.76 137.817 118.17 137.432 118.441L121.889 128.84C121.593 129.039 121.245 129.146 120.889 129.147Z" fill="#263238"/>
<path d="M138.664 116.945C138.665 116.503 138.535 116.071 138.29 115.703C138.046 115.335 137.697 115.048 137.29 114.879C136.882 114.709 136.433 114.664 135.999 114.749C135.566 114.835 135.167 115.047 134.855 115.359C134.542 115.671 134.329 116.069 134.242 116.502C134.155 116.935 134.199 117.385 134.368 117.793C134.537 118.201 134.823 118.55 135.19 118.796C135.558 119.041 135.99 119.172 136.431 119.172C137.023 119.172 137.59 118.938 138.008 118.52C138.427 118.103 138.663 117.536 138.664 116.945Z" fill="#263238" stroke="#263238" stroke-miterlimit="10" stroke-linecap="round"/>
<path d="M136.474 66.7819V74.2278" stroke="#263238" stroke-width="2" stroke-miterlimit="10" stroke-linecap="round"/>
<path d="M136.474 159.081V166.527" stroke="#263238" stroke-width="2" stroke-miterlimit="10" stroke-linecap="round"/>
<path d="M186.347 116.655H178.896" stroke="#263238" stroke-width="2" stroke-miterlimit="10" stroke-linecap="round"/>
<path d="M94.0477 116.655H86.6018" stroke="#263238" stroke-width="2" stroke-miterlimit="10" stroke-linecap="round"/>
<path d="M162.627 74.1902L158.721 80.5332" stroke="#263238" stroke-width="2" stroke-miterlimit="10" stroke-linecap="round"/>
<path d="M114.223 152.776L110.317 159.119" stroke="#263238" stroke-width="2" stroke-miterlimit="10" stroke-linecap="round"/>
<path d="M180.348 92.9449L173.796 96.4849" stroke="#263238" stroke-width="2" stroke-miterlimit="10" stroke-linecap="round"/>
<path d="M99.1479 136.824L92.5951 140.364" stroke="#263238" stroke-width="2" stroke-miterlimit="10" stroke-linecap="round"/>
<path d="M178.939 142.812L172.596 138.901" stroke="#263238" stroke-width="2" stroke-miterlimit="10" stroke-linecap="round"/>
<path d="M100.353 94.4083L94.0101 90.5024" stroke="#263238" stroke-width="2" stroke-miterlimit="10" stroke-linecap="round"/>
<path d="M160.184 160.534L156.644 153.976" stroke="#263238" stroke-width="2" stroke-miterlimit="10" stroke-linecap="round"/>
<path d="M116.305 79.3335L112.765 72.7806" stroke="#263238" stroke-width="2" stroke-miterlimit="10" stroke-linecap="round"/>
<path d="M135.302 243.676C158.986 243.676 178.186 241.407 178.186 238.608C178.186 235.809 158.986 233.54 135.302 233.54C111.618 233.54 92.4177 235.809 92.4177 238.608C92.4177 241.407 111.618 243.676 135.302 243.676Z" fill="#407BFF"/>
<path opacity="0.5" d="M135.302 243.676C158.986 243.676 178.186 241.407 178.186 238.608C178.186 235.809 158.986 233.54 135.302 233.54C111.618 233.54 92.4177 235.809 92.4177 238.608C92.4177 241.407 111.618 243.676 135.302 243.676Z" fill="white"/>
<path d="M146.809 163.202C146.75 162.008 146.809 160.168 146.858 159.108C147.001 158.251 147.073 157.384 147.073 156.515C147.073 144.98 142.624 144.012 137.125 144.012C131.627 144.012 127.178 145.863 127.178 156.515C127.178 156.795 127.178 157.053 127.205 157.349C127.253 157.812 127.705 162.234 127.291 163.902C126.85 165.661 123.326 166.016 121.303 170.239C119.28 174.463 123.681 180.628 138.029 181.419C152.378 182.21 153.868 172.623 153.868 169.368C153.868 166.113 146.901 164.962 146.809 163.202Z" fill="#263238"/>
<path d="M126.828 157.392L127.183 157.354V157.306L126.828 157.392Z" fill="#263238"/>
<path d="M128.851 173.236C128.851 173.236 123.046 173.553 120.985 174.71C118.925 175.867 118.538 182.694 118.538 182.694L112.361 195.95C112.361 195.95 95.7533 184.367 94.3383 183.211C92.9234 182.054 92.536 181.15 91.1103 180.246C89.6846 179.342 89.1789 179.348 87.3766 179.348C85.5743 179.348 85.316 179.606 85.4452 180.117C85.5743 180.628 86.2199 180.763 86.731 180.763C87.2961 180.808 87.8571 180.894 88.4095 181.021L83.2555 183.081C81.9697 183.592 82.2279 181.532 81.0712 181.532C79.9145 181.532 80.0383 184.496 81.9697 185.911C83.9011 187.326 85.1977 186.939 86.731 186.81C88.2643 186.681 91.885 186.17 91.885 186.17C91.885 186.17 101.795 194.923 105.4 198.14C109.004 201.357 113.895 204.445 115.697 203.16C117.499 201.874 124.305 189.258 124.305 189.258L128.679 177.674C128.679 177.674 129.9 175.243 128.851 173.236Z" fill="white"/>
<path opacity="0.1" d="M128.851 173.236C128.851 173.236 123.046 173.553 120.985 174.71C118.925 175.867 118.538 182.694 118.538 182.694L112.361 195.95C112.361 195.95 95.7533 184.367 94.3383 183.211C92.9234 182.054 92.536 181.15 91.1103 180.246C89.6846 179.342 89.1789 179.348 87.3766 179.348C85.5743 179.348 85.316 179.606 85.4452 180.117C85.5743 180.628 86.2199 180.763 86.731 180.763C87.2961 180.808 87.8571 180.894 88.4095 181.021L83.2555 183.081C81.9697 183.592 82.2279 181.532 81.0712 181.532C79.9145 181.532 80.0383 184.496 81.9697 185.911C83.9011 187.326 85.1977 186.939 86.731 186.81C88.2643 186.681 91.885 186.17 91.885 186.17C91.885 186.17 101.795 194.923 105.4 198.14C109.004 201.357 113.895 204.445 115.697 203.16C117.499 201.874 124.305 189.258 124.305 189.258L128.679 177.674C128.679 177.674 129.9 175.243 128.851 173.236Z" fill="black"/>
<path d="M128.851 173.236C128.851 173.236 123.046 173.553 120.985 174.71C118.925 175.867 118.538 182.694 118.538 182.694L112.361 195.95C112.361 195.95 95.7533 184.367 94.3383 183.211C92.9234 182.054 92.536 181.15 91.1103 180.246C89.6846 179.342 89.1789 179.348 87.3766 179.348C85.5743 179.348 85.316 179.606 85.4452 180.117C85.5743 180.628 86.2199 180.763 86.731 180.763C87.2961 180.808 87.8571 180.894 88.4095 181.021L83.2555 183.081C81.9697 183.592 82.2279 181.532 81.0712 181.532C79.9145 181.532 80.0383 184.496 81.9697 185.911C83.9011 187.326 85.1977 186.939 86.731 186.81C88.2643 186.681 91.885 186.17 91.885 186.17C91.885 186.17 101.795 194.923 105.4 198.14C109.004 201.357 113.895 204.445 115.697 203.16C117.499 201.874 124.305 189.258 124.305 189.258L128.679 177.674C128.679 177.674 129.9 175.243 128.851 173.236Z" stroke="#263238" stroke-miterlimit="10" stroke-linecap="round"/>
<path d="M82.3409 186.196C82.3409 186.196 79.8338 184.163 81.1842 182.172C81.5178 181.677 82.2602 182.425 82.4754 183.786C82.6906 185.147 83.3685 185.675 83.7182 185.771" fill="white"/>
<path opacity="0.1" d="M82.3409 186.196C82.3409 186.196 79.8338 184.163 81.1842 182.172C81.5178 181.677 82.2602 182.425 82.4754 183.786C82.6906 185.147 83.3685 185.675 83.7182 185.771" fill="black"/>
<path d="M82.3409 186.196C82.3409 186.196 79.8338 184.163 81.1842 182.172C81.5178 181.677 82.2602 182.425 82.4754 183.786C82.6906 185.147 83.3685 185.675 83.7182 185.771" stroke="#263238" stroke-miterlimit="10" stroke-linecap="round"/>
<path d="M84.213 185.75C83.6159 185.75 83.6482 184.136 82.5237 183.367C81.6307 182.737 81.7436 183.974 81.9535 184.981C82.0356 185.393 82.2402 185.772 82.5406 186.066C82.841 186.361 83.2232 186.558 83.6374 186.632C84.0227 186.729 84.4237 186.745 84.8156 186.681" fill="white"/>
<path opacity="0.1" d="M84.213 185.75C83.6159 185.75 83.6482 184.136 82.5237 183.367C81.6307 182.737 81.7436 183.974 81.9535 184.981C82.0356 185.393 82.2402 185.772 82.5406 186.066C82.841 186.361 83.2232 186.558 83.6374 186.632C84.0227 186.729 84.4237 186.745 84.8156 186.681" fill="black"/>
<path d="M84.213 185.75C83.6159 185.75 83.6482 184.136 82.5237 183.367C81.6307 182.737 81.7436 183.974 81.9535 184.981C82.0356 185.393 82.2402 185.772 82.5406 186.066C82.841 186.361 83.2232 186.558 83.6374 186.632V186.632C84.0227 186.729 84.4237 186.745 84.8156 186.681" stroke="#263238" stroke-miterlimit="10" stroke-linecap="round"/>
<path d="M91.7666 183.119C91.7666 183.119 90.9219 182.522 89.281 183.071C87.6401 183.619 85.7033 186.003 85.2568 185.804C84.8391 185.564 84.5219 185.182 84.3637 184.728C84.1109 184.233 83.6213 183.517 83.2877 184.093C82.5453 185.352 84.5682 186.783 84.5682 186.783C84.5682 186.783 84.8479 187.02 86.4135 186.831C87.9791 186.643 91.5137 186.148 91.5137 186.148" fill="white"/>
<path opacity="0.1" d="M91.7666 183.119C91.7666 183.119 90.9219 182.522 89.281 183.071C87.6401 183.619 85.7033 186.003 85.2568 185.804C84.8391 185.564 84.5219 185.182 84.3637 184.728C84.1109 184.233 83.6213 183.517 83.2877 184.093C82.5453 185.352 84.5682 186.783 84.5682 186.783C84.5682 186.783 84.8479 187.02 86.4135 186.831C87.9791 186.643 91.5137 186.148 91.5137 186.148" fill="black"/>
<path d="M91.7666 183.119C91.7666 183.119 90.9219 182.522 89.281 183.071C87.6401 183.619 85.7033 186.003 85.2568 185.804C84.8391 185.564 84.5219 185.182 84.3637 184.728C84.1109 184.233 83.6213 183.517 83.2877 184.093C82.5453 185.352 84.5682 186.783 84.5682 186.783C84.5682 186.783 84.8479 187.02 86.4135 186.831C87.9791 186.643 91.5137 186.148 91.5137 186.148" stroke="#263238" stroke-miterlimit="10" stroke-linecap="round"/>
<path d="M124.402 186.498L122.524 181.123" stroke="#263238" stroke-miterlimit="10" stroke-linecap="round"/>
<path d="M143.92 173.118C143.92 173.118 150.037 173.553 152.098 174.732C154.159 175.91 154.546 182.716 154.546 182.716L160.722 195.972C160.722 195.972 177.33 184.389 178.745 183.232C180.16 182.075 180.547 181.172 181.973 180.268C183.399 179.364 183.905 179.369 185.707 179.369C187.509 179.369 187.767 179.627 187.638 180.139C187.509 180.65 186.864 180.784 186.347 180.784C185.784 180.83 185.225 180.916 184.674 181.042L189.823 183.103C191.114 183.614 190.856 181.554 192.012 181.554C193.169 181.554 193.045 184.518 191.114 185.933C189.182 187.348 187.886 186.96 186.347 186.831C184.808 186.702 181.198 186.191 181.198 186.191C181.198 186.191 171.288 194.944 167.684 198.162C164.079 201.379 159.189 204.467 157.387 203.181C155.584 201.895 148.779 189.279 148.779 189.279L144.405 177.696C144.405 177.696 142.877 175.124 143.92 173.118Z" fill="white"/>
<path opacity="0.1" d="M143.92 173.118C143.92 173.118 150.037 173.553 152.098 174.732C154.159 175.91 154.546 182.716 154.546 182.716L160.722 195.972C160.722 195.972 177.33 184.389 178.745 183.232C180.16 182.075 180.547 181.172 181.973 180.268C183.399 179.364 183.905 179.369 185.707 179.369C187.509 179.369 187.767 179.627 187.638 180.139C187.509 180.65 186.864 180.784 186.347 180.784C185.784 180.83 185.225 180.916 184.674 181.042L189.823 183.103C191.114 183.614 190.856 181.554 192.012 181.554C193.169 181.554 193.045 184.518 191.114 185.933C189.182 187.348 187.886 186.96 186.347 186.831C184.808 186.702 181.198 186.191 181.198 186.191C181.198 186.191 171.288 194.944 167.684 198.162C164.079 201.379 159.189 204.467 157.387 203.181C155.584 201.895 148.779 189.279 148.779 189.279L144.405 177.696C144.405 177.696 142.877 175.124 143.92 173.118Z" fill="black"/>
<path d="M143.92 173.118C143.92 173.118 150.037 173.553 152.098 174.732C154.159 175.91 154.546 182.716 154.546 182.716L160.722 195.972C160.722 195.972 177.33 184.389 178.745 183.232C180.16 182.075 180.547 181.172 181.973 180.268C183.399 179.364 183.905 179.369 185.707 179.369C187.509 179.369 187.767 179.627 187.638 180.139C187.509 180.65 186.864 180.784 186.347 180.784C185.784 180.83 185.225 180.916 184.674 181.042L189.823 183.103C191.114 183.614 190.856 181.554 192.012 181.554C193.169 181.554 193.045 184.518 191.114 185.933C189.182 187.348 187.886 186.96 186.347 186.831C184.808 186.702 181.198 186.191 181.198 186.191C181.198 186.191 171.288 194.944 167.684 198.162C164.079 201.379 159.189 204.467 157.387 203.181C155.584 201.895 148.779 189.279 148.779 189.279L144.405 177.696C144.405 177.696 142.877 175.124 143.92 173.118Z" stroke="#263238" stroke-miterlimit="10" stroke-linecap="round"/>
<path d="M148.779 185.373L150.274 180.999" stroke="#263238" stroke-miterlimit="10" stroke-linecap="round"/>
<path d="M191.361 185.465C191.361 185.465 192.437 182.425 191.899 182.172C191.361 181.919 190.823 182.425 190.608 183.786C190.393 185.147 189.715 185.675 189.365 185.771" fill="white"/>
<path opacity="0.1" d="M192.098 184.808C192.098 184.808 192.448 182.425 191.899 182.172C191.351 181.919 190.823 182.425 190.608 183.786C190.393 185.147 189.715 185.675 189.365 185.771" fill="black"/>
<path d="M191.361 185.465C191.361 185.465 192.437 182.425 191.899 182.172C191.361 181.919 190.823 182.425 190.608 183.786C190.393 185.147 189.715 185.675 189.365 185.771" stroke="#263238" stroke-miterlimit="10" stroke-linecap="round"/>
<path d="M190.543 186.008C190.543 186.008 191.899 182.172 190.328 183.189C189.172 183.937 189.468 185.75 188.87 185.75" fill="white"/>
<path opacity="0.1" d="M190.855 186.051C190.855 186.051 191.899 182.172 190.317 183.189C189.161 183.937 189.457 185.75 188.86 185.75" fill="black"/>
<path d="M190.543 186.008C190.543 186.008 191.899 182.172 190.328 183.189C189.172 183.937 189.468 185.75 188.87 185.75" stroke="#263238" stroke-miterlimit="10" stroke-linecap="round"/>
<path d="M181.306 183.119C181.306 183.119 182.151 182.522 183.792 183.071C185.432 183.619 187.369 186.003 187.816 185.804C188.233 185.564 188.551 185.182 188.709 184.728C188.956 184.233 189.408 183.937 189.704 184.529C190 185.12 189.107 186.869 189.107 186.869C189.107 186.869 188.569 187.251 187.251 186.944C185.763 186.586 184.251 186.336 182.726 186.196" fill="white"/>
<path opacity="0.1" d="M181.306 183.119C181.306 183.119 182.151 182.522 183.792 183.071C185.432 183.619 187.369 186.003 187.816 185.804C188.233 185.564 188.551 185.182 188.709 184.728C188.956 184.233 189.408 183.937 189.704 184.529C190 185.12 189.107 186.869 189.107 186.869C189.107 186.869 188.569 187.251 187.251 186.944C185.933 186.638 182.371 185.691 181.559 185.691" fill="black"/>
<path d="M181.306 183.119C181.306 183.119 182.151 182.522 183.792 183.071C185.432 183.619 187.369 186.003 187.816 185.804C188.233 185.564 188.551 185.182 188.709 184.728C188.956 184.233 189.408 183.937 189.704 184.529C190 185.12 189.107 186.869 189.107 186.869C189.107 186.869 188.569 187.251 187.251 186.944C185.763 186.586 184.251 186.336 182.726 186.196" stroke="#263238" stroke-miterlimit="10" stroke-linecap="round"/>
<path d="M134.134 165.403C134.134 165.403 133.87 168.399 132.638 170.422C131.406 172.445 128.872 173.236 128.872 173.236L123.858 188.644L126.478 199.06C126.478 199.06 121.809 206.162 119.974 210.476C118.139 214.791 120.345 219.671 122.282 221.694C124.219 223.717 126.79 226.46 133.354 226.202C142.5 225.842 148.956 226.676 151.888 223.243C154.82 219.811 155.116 213.328 151.63 208.437C149.521 205.462 146.643 199.033 146.643 199.033L149.494 188.3L145.125 173.236C145.125 173.236 142.495 173.085 140.913 171.149C139.331 169.212 139.681 165.688 139.681 165.688L134.134 165.403Z" fill="white"/>
<path opacity="0.1" d="M134.134 165.403C134.134 165.403 133.87 168.399 132.638 170.422C131.406 172.445 128.872 173.236 128.872 173.236L123.858 188.644L126.478 199.06C126.478 199.06 121.809 206.162 119.974 210.476C118.139 214.791 120.345 219.671 122.282 221.694C124.219 223.717 126.79 226.46 133.354 226.202C142.5 225.842 148.956 226.676 151.888 223.243C154.82 219.811 155.116 213.328 151.63 208.437C149.521 205.462 146.643 199.033 146.643 199.033L149.494 188.3L145.125 173.236C145.125 173.236 142.495 173.085 140.913 171.149C139.331 169.212 139.681 165.688 139.681 165.688L134.134 165.403Z" fill="black"/>
<path d="M134.134 165.403C134.134 165.403 133.87 168.399 132.638 170.422C131.406 172.445 128.872 173.236 128.872 173.236L123.858 188.644L126.478 199.06C126.478 199.06 121.809 206.162 119.974 210.476C118.139 214.791 120.345 219.671 122.282 221.694C124.219 223.717 126.79 226.46 133.354 226.202C142.5 225.842 148.956 226.676 151.888 223.243C154.82 219.811 155.116 213.328 151.63 208.437C149.521 205.462 146.643 199.033 146.643 199.033L149.494 188.3L145.125 173.236C145.125 173.236 142.495 173.085 140.913 171.149C139.331 169.212 139.681 165.688 139.681 165.688L134.134 165.403Z" stroke="#263238" stroke-miterlimit="10" stroke-linecap="round"/>
<path d="M149.494 188.3L145.125 173.236C144.687 173.205 144.253 173.133 143.829 173.021C144.335 176.523 143.732 178.277 143.732 178.277C143.646 179.046 143.376 179.782 142.947 180.425C142.517 181.068 141.939 181.599 141.263 181.973C138.89 183.383 134.398 183.646 131.579 181.36C129.427 179.633 129.83 174.904 130.148 172.682C129.732 172.904 129.299 173.09 128.851 173.236L123.837 188.644L126.478 199.06H146.632L149.494 188.3Z" fill="#263238" stroke="#263238" stroke-miterlimit="10" stroke-linecap="round"/>
<path d="M129.868 158.414C129.868 158.414 128.254 156.305 127.684 157.876C127.113 159.447 129.949 160.84 129.949 160.84L129.868 158.414Z" fill="white"/>
<path opacity="0.1" d="M129.868 158.414C129.868 158.414 128.254 156.305 127.684 157.876C127.113 159.447 129.949 160.84 129.949 160.84L129.868 158.414Z" fill="black"/>
<path d="M129.868 158.414C129.868 158.414 128.254 156.305 127.684 157.876C127.113 159.447 129.949 160.84 129.949 160.84L129.868 158.414Z" stroke="#263238" stroke-miterlimit="10" stroke-linecap="round"/>
<path d="M144.141 158.414C144.141 158.414 145.782 156.305 146.325 157.876C146.869 159.447 144.066 160.84 144.066 160.84L144.141 158.414Z" fill="white"/>
<path opacity="0.1" d="M144.141 158.414C144.141 158.414 145.782 156.305 146.325 157.876C146.869 159.447 144.066 160.84 144.066 160.84L144.141 158.414Z" fill="black"/>
<path d="M144.141 158.414C144.141 158.414 145.782 156.305 146.325 157.876C146.869 159.447 144.066 160.84 144.066 160.84L144.141 158.414Z" stroke="#263238" stroke-miterlimit="10" stroke-linecap="round"/>
<path d="M137.077 167.506C135.199 167.506 133.398 166.76 132.071 165.433C130.743 164.105 129.997 162.304 129.997 160.426V149.564C129.996 149.217 130.064 148.874 130.196 148.554C130.328 148.233 130.522 147.942 130.767 147.696C131.012 147.451 131.303 147.256 131.623 147.124C131.943 146.991 132.286 146.922 132.633 146.922H141.494C141.845 146.916 142.194 146.98 142.52 147.109C142.846 147.239 143.143 147.433 143.393 147.679C143.644 147.925 143.843 148.218 143.978 148.542C144.114 148.866 144.184 149.213 144.184 149.564V160.442C144.181 161.373 143.995 162.294 143.636 163.152C143.278 164.011 142.753 164.79 142.093 165.446C141.434 166.102 140.651 166.622 139.79 166.975C138.929 167.329 138.007 167.509 137.077 167.506Z" fill="white"/>
<path opacity="0.1" d="M137.077 167.506C135.199 167.506 133.398 166.76 132.071 165.433C130.743 164.105 129.997 162.304 129.997 160.426V149.564C129.996 149.217 130.064 148.874 130.196 148.554C130.328 148.233 130.522 147.942 130.767 147.696C131.012 147.451 131.303 147.256 131.623 147.124C131.943 146.991 132.286 146.922 132.633 146.922H141.494C141.845 146.916 142.194 146.98 142.52 147.109C142.846 147.239 143.143 147.433 143.393 147.679C143.644 147.925 143.843 148.218 143.978 148.542C144.114 148.866 144.184 149.213 144.184 149.564V160.442C144.181 161.373 143.995 162.294 143.636 163.152C143.278 164.011 142.753 164.79 142.093 165.446C141.434 166.102 140.651 166.622 139.79 166.975C138.929 167.329 138.007 167.509 137.077 167.506Z" fill="black"/>
<path d="M137.077 167.506C135.199 167.506 133.398 166.76 132.071 165.433C130.743 164.105 129.997 162.304 129.997 160.426V149.564C129.996 149.217 130.064 148.874 130.196 148.554C130.328 148.233 130.522 147.942 130.767 147.696C131.012 147.451 131.303 147.256 131.623 147.124C131.943 146.991 132.286 146.922 132.633 146.922H141.494C141.845 146.916 142.194 146.98 142.52 147.109C142.846 147.239 143.143 147.433 143.393 147.679C143.644 147.925 143.843 148.218 143.978 148.542C144.114 148.866 144.184 149.213 144.184 149.564V160.442C144.181 161.373 143.995 162.294 143.636 163.152C143.278 164.011 142.753 164.79 142.093 165.446C141.434 166.102 140.651 166.622 139.79 166.975C138.929 167.329 138.007 167.509 137.077 167.506V167.506Z" stroke="#263238" stroke-miterlimit="10" stroke-linecap="round"/>
<path d="M131.81 155.606C132.296 155.928 132.866 156.1 133.448 156.1C134.031 156.1 134.601 155.928 135.086 155.606" stroke="#263238" stroke-miterlimit="10" stroke-linecap="round"/>
<path d="M139.148 155.606C139.633 155.928 140.202 156.1 140.784 156.1C141.366 156.1 141.935 155.928 142.419 155.606" stroke="#263238" stroke-miterlimit="10" stroke-linecap="round"/>
<path d="M137.744 154.438L138.212 158.957H136.34" stroke="#263238" stroke-miterlimit="10" stroke-linecap="round"/>
<path d="M136.415 161.529H138.288" stroke="#263238" stroke-miterlimit="10" stroke-linecap="round"/>
<path d="M137.147 146.906H132.633C132.286 146.906 131.943 146.975 131.623 147.107C131.303 147.24 131.012 147.435 130.767 147.68C130.522 147.926 130.328 148.217 130.196 148.537C130.064 148.858 129.996 149.201 129.997 149.548V154.928C132.886 152.415 136.248 148.095 137.147 146.906Z" fill="#263238" stroke="#263238" stroke-miterlimit="10"/>
<path d="M144.184 155.132V149.564C144.184 148.863 143.906 148.192 143.41 147.696C142.915 147.201 142.243 146.922 141.542 146.922H137.502C138.433 149.871 142.032 153.33 144.184 155.132Z" fill="#263238" stroke="#263238" stroke-miterlimit="10"/>
<path d="M131.503 153.502C131.503 153.502 132.348 152.017 135.038 152.254" stroke="#263238" stroke-width="2" stroke-miterlimit="10" stroke-linecap="round"/>
<path d="M138.599 152.254C139.315 151.956 140.112 151.917 140.853 152.145C141.594 152.373 142.232 152.853 142.656 153.502" stroke="#263238" stroke-width="2" stroke-miterlimit="10" stroke-linecap="round"/>
<path d="M119.974 210.476C118.123 214.78 120.345 219.671 122.282 221.694C124.219 223.717 126.79 226.46 133.354 226.202C142.5 225.842 148.956 226.676 151.888 223.243C154.82 219.811 155.116 213.328 151.63 208.437C150.842 207.28 150.123 206.076 149.478 204.833H122.906C121.823 206.657 120.844 208.541 119.974 210.476Z" fill="#263238" stroke="#263238" stroke-miterlimit="10" stroke-linecap="round"/>
<path d="M134.371 219.208C129.739 214.404 121.33 211.999 117.209 211.31C113.088 210.622 105.54 206.468 105.54 206.468C105.54 206.468 101.074 206.318 101.418 211.638C101.763 216.959 114.632 223.141 119.614 225.885C121.851 227.147 124.359 227.855 126.927 227.948C129.495 228.042 132.047 227.519 134.371 226.423" fill="#263238"/>
<path d="M134.371 219.208C129.739 214.404 121.33 211.999 117.209 211.31C113.088 210.622 105.54 206.468 105.54 206.468C105.54 206.468 101.074 206.318 101.418 211.638C101.763 216.959 114.632 223.141 119.614 225.885C121.851 227.147 124.359 227.855 126.927 227.948C129.495 228.042 132.047 227.519 134.371 226.423" stroke="#263238" stroke-miterlimit="10" stroke-linecap="round"/>
<path d="M137.271 219.38C141.903 214.576 150.312 212.171 154.433 211.482C158.554 210.794 164.962 207.286 164.962 207.286C164.962 207.286 170.568 206.506 170.223 211.827C169.879 217.148 157.01 223.324 152.028 226.073C149.79 227.334 147.282 228.041 144.715 228.135C142.147 228.228 139.595 227.706 137.271 226.611" fill="#263238"/>
<path d="M137.271 219.38C141.903 214.576 150.312 212.171 154.433 211.482C158.554 210.794 164.962 207.286 164.962 207.286C164.962 207.286 170.568 206.506 170.223 211.827C169.879 217.148 157.01 223.324 152.028 226.073C149.79 227.334 147.282 228.041 144.715 228.135C142.147 228.228 139.595 227.706 137.271 226.611" stroke="#263238" stroke-miterlimit="10" stroke-linecap="round"/>
<path d="M156.606 227.778C156.606 227.778 157.241 227.359 156.924 226.299C156.606 225.239 154.912 226.084 153.744 226.084C152.577 226.084 148.127 225.659 146.013 225.449C144.2 225.266 141.236 225.32 140.413 225.336C140.532 226.64 140.264 227.95 139.643 229.102L140.057 229.145C143.662 229.5 145.228 229.57 146.331 229.801C148.343 230.226 150.565 231.921 152.787 231.819C155.008 231.717 157.026 230.205 157.026 229.274C157.048 228.744 156.901 228.22 156.606 227.778Z" fill="white"/>
<path opacity="0.1" d="M156.606 227.778C156.606 227.778 157.241 227.359 156.924 226.299C156.606 225.239 154.912 226.084 153.744 226.084C152.577 226.084 148.127 225.659 146.013 225.449C144.2 225.266 141.236 225.32 140.413 225.336C140.532 226.64 140.264 227.95 139.643 229.102L140.057 229.145C143.662 229.5 145.228 229.57 146.331 229.801C148.343 230.226 150.565 231.921 152.787 231.819C155.008 231.717 157.026 230.205 157.026 229.274C157.048 228.744 156.901 228.22 156.606 227.778Z" fill="black"/>
<path d="M156.606 227.778C156.606 227.778 157.241 227.359 156.924 226.299C156.606 225.239 154.912 226.084 153.744 226.084C152.577 226.084 148.127 225.659 146.013 225.449C144.2 225.266 141.236 225.32 140.413 225.336C140.532 226.64 140.264 227.95 139.643 229.102L140.057 229.145C143.662 229.5 145.228 229.57 146.331 229.801C148.343 230.226 150.565 231.921 152.787 231.819C155.008 231.717 157.026 230.205 157.026 229.274C157.048 228.744 156.901 228.22 156.606 227.778V227.778Z" stroke="#263238" stroke-miterlimit="10" stroke-linecap="round"/>
<path d="M156.606 227.778C155.989 227.883 155.357 227.883 154.74 227.778" stroke="#263238" stroke-miterlimit="10" stroke-linecap="round"/>
<path d="M157.031 229.263C156.21 229.326 155.384 229.326 154.562 229.263" stroke="#263238" stroke-miterlimit="10" stroke-linecap="round"/>
<path d="M154.148 230.21C154.727 230.534 155.4 230.644 156.052 230.522" stroke="#263238" stroke-miterlimit="10" stroke-linecap="round"/>
<path d="M153.33 230.904C153.878 231.168 154.492 231.263 155.095 231.179" stroke="#263238" stroke-miterlimit="10" stroke-linecap="round"/>
<path d="M139.643 229.091C140.264 227.939 140.532 226.629 140.413 225.325H140.181C140.181 225.325 132.025 223.647 125.246 219.504C118.468 215.361 109.881 209.018 105.539 206.474C101.198 203.929 97.0605 207.743 97.4694 211.773C97.8782 215.803 101.176 217.917 107.11 220.381C113.044 222.845 123.853 226.633 129.572 227.795C132.536 228.381 136.356 228.785 139.643 229.091Z" fill="#263238" stroke="#263238" stroke-miterlimit="10" stroke-linecap="round"/>
<path d="M130.115 230.21C129.496 229.057 129.23 227.747 129.351 226.444H129.577C129.577 226.444 137.733 224.75 144.518 220.618C151.302 216.486 159.877 210.127 164.224 207.582C168.572 205.037 172.698 208.857 172.294 212.881C171.891 216.905 168.588 219.025 162.654 221.462C156.719 223.899 145.916 227.714 140.192 228.881C137.222 229.495 133.424 229.898 130.115 230.21Z" fill="#263238" stroke="#263238" stroke-miterlimit="10" stroke-linecap="round"/>
<path d="M129.351 226.455C129.351 226.455 121.502 226.762 119.011 226.589C116.52 226.417 114.632 225.212 113.948 225.815C113.265 226.417 114.12 227.359 114.12 227.359C114.12 227.359 113.862 228.817 114.551 229.592C115.24 230.366 116.165 231.049 119.097 231.91C122.029 232.771 125.015 231.555 126.629 231.125L130.099 230.21C130.099 230.21 129.303 228.978 129.351 226.455Z" fill="white"/>
<path opacity="0.1" d="M129.351 226.455C129.351 226.455 121.502 226.762 119.011 226.589C116.52 226.417 114.632 225.212 113.948 225.815C113.265 226.417 114.12 227.359 114.12 227.359C114.12 227.359 113.862 228.817 114.551 229.592C115.24 230.366 116.165 231.049 119.097 231.91C122.029 232.771 125.015 231.555 126.629 231.125L130.099 230.21C130.099 230.21 129.303 228.978 129.351 226.455Z" fill="black"/>
<path d="M129.351 226.455C129.351 226.455 121.502 226.762 119.011 226.589C116.52 226.417 114.632 225.212 113.948 225.815C113.265 226.417 114.12 227.359 114.12 227.359C114.12 227.359 113.862 228.817 114.551 229.592C115.24 230.366 116.165 231.049 119.097 231.91C122.029 232.771 125.015 231.555 126.629 231.125L130.099 230.21C130.099 230.21 129.303 228.978 129.351 226.455Z" stroke="#263238" stroke-miterlimit="10" stroke-linecap="round"/>
<path d="M114.121 227.359C114.298 227.24 114.507 227.176 114.72 227.176C114.934 227.176 115.143 227.24 115.32 227.359C115.731 227.639 116.2 227.823 116.692 227.897" stroke="#263238" stroke-miterlimit="10" stroke-linecap="round"/>
<path d="M114.217 229.027C114.355 228.903 114.52 228.815 114.699 228.77C114.878 228.725 115.066 228.724 115.245 228.768C115.655 228.885 116.078 228.947 116.504 228.951" stroke="#263238" stroke-miterlimit="10" stroke-linecap="round"/>
<path d="M115.53 230.388C115.53 230.388 115.681 229.952 115.966 229.952C116.251 229.952 117.429 230.108 117.736 230.081" stroke="#263238" stroke-miterlimit="10" stroke-linecap="round"/>
<path d="M117.198 231.238C117.198 231.238 117.483 230.85 117.736 230.829C118.06 230.784 118.387 230.757 118.715 230.748" stroke="#263238" stroke-miterlimit="10" stroke-linecap="round"/>
<path d="M133.343 226.202C133.343 226.202 149.763 218.132 156.397 213.543" stroke="white" stroke-miterlimit="10" stroke-linecap="round"/>
<path d="M114.809 212.51C114.809 212.51 128.84 223.48 136.749 224.244" stroke="white" stroke-miterlimit="10" stroke-linecap="round"/>
<path d="M121.378 212.214C121.378 212.214 132.052 215.523 134.828 219.795" stroke="white" stroke-miterlimit="10" stroke-linecap="round"/>
<path d="M138.567 218.299C138.567 218.299 145.185 213.602 152.017 212.214" stroke="white" stroke-miterlimit="10" stroke-linecap="round"/>
</svg>
